<?xml version="1.0" encoding="utf-8"?>
<!-- Generator: Adobe Illustrator 18.0.0, SVG Export Plug-In . SVG Version: 6.00 Build 0)  -->
<!DOCTYPE svg PUBLIC "-//W3C//DTD SVG 1.1//EN" "http://www.w3.org/Graphics/SVG/1.1/DTD/svg11.dtd">
<svg version="1.1" id="Layer_1" xmlns="http://www.w3.org/2000/svg" xmlns:xlink="http://www.w3.org/1999/xlink" x="0px" y="0px"
	 viewBox="0 0 1900 400" enable-background="new 0 0 1900 400" xml:space="preserve">
<linearGradient id="SVGID_1_" gradientUnits="userSpaceOnUse" x1="-414.1853" y1="132.0825" x2="1044.0648" y2="132.0825" gradientTransform="matrix(1.3029 0 0 -1.3029 539.6551 370.4945)">
	<stop  offset="0" style="stop-color:#D770AD"/>
	<stop  offset="1" style="stop-color:#ECA3C0"/>
</linearGradient>
<rect y="-1.6" fill="url(#SVGID_1_)" width="1900" height="400"/>
<g>
	<path fill="#F9F7F7" d="M938.3,228.8c0,0-5.3-1.2-2.9-6.6c3.1-4.2,5.1-9,5.2-10.6c0,0,4.8-3.8,5.1-9.5c0.3-5.7-1-6-1-6
		c2.1-6.3,2.5-28.8-12.4-25.9c-2.1-6.1-17.9-9.6-25.1,3.5c-3.6,6.5-5,15.4-2.1,22.7c-0.1,0.5-1-0.5-1.3,2.9c-0.3,3.3,1.2,7.8,2.7,10
		c0.7,0.9,1.8,1.6,2.6,2c0,0,0.9,5.7,5.3,11.2c1,4.3-3.3,6.6-3.3,6.6c-14.1,2.7-27,10.6-27,19.2c0,0.7,0,6.6,0,6.6l0,0
		c0,9.3,21.4,11.2,40.5,11.2c19.2,0,40.4-5.6,40.4-11.2c0,0,0-6,0-6.6C965,239.3,952.2,231.5,938.3,228.8z"/>
	<path fill="#F9F7F7" d="M982.8,133.9c-24,0-33,18.6-33,30.5c0,18,17.3,30.5,33,30.5c15.9,0,33-12.2,33-30.5
		C1015.8,149.4,1003.6,133.9,982.8,133.9z M982.8,184.8c-9.5,0-22.8-7.7-22.8-20.3c0-7.8,6.3-20.3,22.8-20.3
		c14.3,0,22.8,10.3,22.8,20.3C1005.8,177.5,992.2,184.8,982.8,184.8z"/>
	<circle fill="#F9F7F7" cx="955" cy="215.1" r="5.1"/>
	<circle fill="#F9F7F7" cx="967.6" cy="202.5" r="7.6"/>
</g>
</svg>
