<?xml version="1.0" encoding="utf-8"?>
<!-- Generator: Adobe Illustrator 18.0.0, SVG Export Plug-In . SVG Version: 6.00 Build 0)  -->
<!DOCTYPE svg PUBLIC "-//W3C//DTD SVG 1.1//EN" "http://www.w3.org/Graphics/SVG/1.1/DTD/svg11.dtd">
<svg version="1.1" id="Layer_1" xmlns="http://www.w3.org/2000/svg" xmlns:xlink="http://www.w3.org/1999/xlink" x="0px" y="0px"
	 viewBox="36.3 497.4 613 307" enable-background="new 36.3 497.4 613 307" xml:space="preserve">
<linearGradient id="SVGID_1_" gradientUnits="userSpaceOnUse" x1="36.3" y1="650.9" x2="650.3" y2="650.9">
	<stop  offset="0" style="stop-color:#D770AD"/>
	<stop  offset="1" style="stop-color:#ECA3C0"/>
</linearGradient>
<rect x="36.3" y="497.4" fill="url(#SVGID_1_)" width="614" height="307"/>
<g>
	<path fill="#F9F7F7" d="M336.6,661.5c0,0-4.1-0.9-2.2-5.1c2.4-3.2,3.9-6.9,4-8.1c0,0,3.7-2.9,3.9-7.3c0.2-4.4-0.8-4.6-0.8-4.6
		c1.6-4.8,1.9-22.1-9.5-19.9c-1.6-4.7-13.7-7.4-19.3,2.7c-2.8,5-3.8,11.8-1.6,17.4c-0.1,0.4-0.8-0.4-1,2.2c-0.2,2.5,0.9,6,2.1,7.7
		c0.5,0.7,1.4,1.2,2,1.5c0,0,0.7,4.4,4.1,8.6c0.8,3.3-2.5,5.1-2.5,5.1c-10.8,2.1-20.7,8.1-20.7,14.7c0,0.5,0,5.1,0,5.1l0,0
		c0,7.1,16.4,8.6,31.1,8.6c14.7,0,31-4.3,31-8.6c0,0,0-4.6,0-5.1C357.1,669.6,347.3,663.6,336.6,661.5z"/>
	<path fill="#F9F7F7" d="M370.8,588.7c-18.4,0-25.3,14.3-25.3,23.4c0,13.8,13.3,23.4,25.3,23.4c12.2,0,25.3-9.4,25.3-23.4
		C396.1,600.6,386.7,588.7,370.8,588.7z M370.8,627.7c-7.3,0-17.5-5.9-17.5-15.6c0-6,4.8-15.6,17.5-15.6c11,0,17.5,7.9,17.5,15.6
		C388.4,622.1,378,627.7,370.8,627.7z"/>
	<circle fill="#F9F7F7" cx="349.4" cy="651" r="3.9"/>
	<circle fill="#F9F7F7" cx="359.1" cy="641.3" r="5.8"/>
</g>
</svg>
