<?xml version="1.0" encoding="utf-8"?>
<!-- Generator: Adobe Illustrator 19.0.0, SVG Export Plug-In . SVG Version: 6.00 Build 0)  -->
<svg version="1.1" id="Layer_1" xmlns="http://www.w3.org/2000/svg" xmlns:xlink="http://www.w3.org/1999/xlink" x="0px" y="0px"
	 viewBox="644 197 1900 400" style="enable-background:new 644 197 1900 400;" xml:space="preserve">
<style type="text/css">
	.st0{fill:url(#SVGID_1_);}
	.st1{opacity:0.44;}
	.st2{fill:none;stroke:#203569;}
	.st3{opacity:0.58;}
	.st4{opacity:0.44;fill:none;stroke:#B21F24;enable-background:new    ;}
	.st5{opacity:0.44;fill:#B21F24;fill-opacity:0.5;stroke:#B21F24;enable-background:new    ;}
	.st6{fill:#E47C88;}
	.st7{fill:#F4F6F9;}
	.st8{fill:#FDFEFF;fill-opacity:0.75;}
</style>
<linearGradient id="SVGID_1_" gradientUnits="userSpaceOnUse" x1="639.7246" y1="301.9879" x2="2545.8242" y2="301.9879" gradientTransform="matrix(0.9968 0 0 0.9968 6.3225 95.9784)">
	<stop  offset="0" style="stop-color:#DA4553"/>
	<stop  offset="1" style="stop-color:#E47C88"/>
</linearGradient>
<rect x="644" y="197" class="st0" width="1900" height="400"/>
<g class="st1">
	<path class="st2" d="M650.3,561.5c18.6,0,74.2,0,111.2,0s74.2-43.4,111.2-45.6c36.9-2.2,74.2-1.9,111.2-2.2
		c36.9-0.3,74.2-5.7,111.2-6.4c36.9-0.3,74.2-0.3,111.2-0.3c36.9,0,74.2-2.9,111.2-1.6c36.9,1.6,74.2,15,111.2,15.9
		c36.9,0.6,74.2-1,111.2-0.6c36.9,0.3,74.2,6.1,111.2,6.7c36.9,0.6,74.2-1.3,111.2-3.5c36.9-2.2,74.5-6.1,111.2-8.9
		c36.6-2.9,74.5-5.4,111.2-8.9c36.6-3.5,74.5-8.9,111.2-12.1c36.6-3.2,74.2-5.4,111.2-6.7c36.9-1.3,74.2-0.3,111.2-2.6
		c36.9-2.2,75.2-6.7,111.2-12.4c36.3-5.7,93.5-19.4,111.2-23.3"/>
</g>
<g>
	<ellipse class="st2" cx="650.3" cy="561.5" rx="7.3" ry="7.3"/>
	<ellipse class="st2" cx="761.5" cy="561.5" rx="7.3" ry="7.3"/>
	<ellipse class="st2" cx="872.6" cy="516.2" rx="7.3" ry="7.3"/>
	<ellipse class="st2" cx="984.1" cy="514" rx="7.3" ry="7.3"/>
	<ellipse class="st2" cx="1095.3" cy="507.6" rx="7.3" ry="7.3"/>
	<ellipse class="st2" cx="1206.4" cy="507.3" rx="7.3" ry="7.3"/>
	<ellipse class="st2" cx="1317.9" cy="505.7" rx="7.3" ry="7.3"/>
	<ellipse class="st2" cx="1429" cy="521.7" rx="7.3" ry="7.3"/>
	<ellipse class="st2" cx="1540.2" cy="520.7" rx="7.3" ry="7.3"/>
	<ellipse class="st2" cx="1651.7" cy="527.4" rx="7.3" ry="7.3"/>
	<ellipse class="st2" cx="1762.8" cy="523.9" rx="7.3" ry="7.3"/>
	<ellipse class="st2" cx="1874.3" cy="515" rx="7.3" ry="7.3"/>
	<ellipse class="st2" cx="1985.4" cy="506" rx="7.3" ry="7.3"/>
	<ellipse class="st2" cx="2096.6" cy="493.9" rx="7.3" ry="7.3"/>
	<ellipse class="st2" cx="2208.1" cy="486.9" rx="7.3" ry="7.3"/>
	<ellipse class="st2" cx="2319.2" cy="484.4" rx="7.3" ry="7.3"/>
	<ellipse class="st2" cx="2430.4" cy="471.9" rx="7.3" ry="7.3"/>
	<ellipse class="st2" cx="2541.8" cy="448.6" rx="7.3" ry="7.3"/>
</g>
<g class="st3">
	<path class="st4" d="M650.3,490.1c18.6,0.3,74.2,1.9,111.2,1.6c36.9-0.3,74.2-2.9,111.2-3.2s74.2,0,111.2-0.6s74.2-3.2,111.2-4.1
		c36.9-1,74.2-1.3,111.2-1c36.9,0.3,74.2,1.6,111.2,2.9c36.9,1.3,74.2,3.8,111.2,4.1c36.9,0.3,74.2-1.6,111.2-1.6
		s74.2,0.3,111.2,0.3c36.9,0,74.2-2.6,111.2-3.5c36.9-1,74.2-1.6,111.2-2.2c36.9-0.6,74.2-1.6,111.2-2.2
		c36.9-0.6,74.2-3.2,111.2-2.6c36.9,0.6,74.2,6.7,111.2,7c36.9,0.3,74.2-0.6,111.2-0.6c36.9,0,74.2,1.9,111.2,3.2
		c36.9,1.3,92.8,3.2,111.2,3.8"/>
</g>
<g>
	<ellipse class="st5" cx="650.3" cy="490.1" rx="7.3" ry="7.3"/>
	<ellipse class="st5" cx="761.5" cy="491.7" rx="7.3" ry="7.3"/>
	<ellipse class="st5" cx="872.6" cy="488.5" rx="7.3" ry="7.3"/>
	<ellipse class="st5" cx="984.1" cy="487.9" rx="7.3" ry="7.3"/>
	<ellipse class="st5" cx="1095.3" cy="483.7" rx="7.3" ry="7.3"/>
	<ellipse class="st5" cx="1206.4" cy="482.8" rx="7.3" ry="7.3"/>
	<ellipse class="st5" cx="1317.9" cy="485.6" rx="7.3" ry="7.3"/>
	<ellipse class="st5" cx="1429" cy="489.8" rx="7.3" ry="7.3"/>
	<ellipse class="st5" cx="1540.2" cy="488.2" rx="7.3" ry="7.3"/>
	<ellipse class="st5" cx="1651.7" cy="488.2" rx="7.3" ry="7.3"/>
	<ellipse class="st5" cx="1762.8" cy="484.7" rx="7.3" ry="7.3"/>
	<ellipse class="st5" cx="1874.3" cy="482.8" rx="7.3" ry="7.3"/>
	<ellipse class="st5" cx="1985.4" cy="480.5" rx="7.3" ry="7.3"/>
	<ellipse class="st5" cx="2096.6" cy="478" rx="7.3" ry="7.3"/>
	<ellipse class="st5" cx="2208.1" cy="485" rx="7.3" ry="7.3"/>
	<ellipse class="st5" cx="2319.2" cy="484.7" rx="7.3" ry="7.3"/>
	<ellipse class="st5" cx="2430.4" cy="487.5" rx="7.3" ry="7.3"/>
	<ellipse class="st5" cx="2541.8" cy="491.4" rx="7.3" ry="7.3"/>
</g>
<g>
	<polygon class="st6" points="1594.2,446.6 1553.2,431.4 1486,378.5 1511.7,339.8 1570.2,323.7 1665.4,370.1 1661.4,397.7 
		1622,443.4 	"/>
	<path class="st7" d="M1507,412.7c-17.1,0-30.8,13.9-30.8,30.8c0,17.1,13.9,30.8,30.8,30.8c17.1,0,30.8-13.9,30.8-30.8
		C1538,426.5,1524.2,412.7,1507,412.7z M1507,466.6c-12.8,0-23.3-10.4-23.3-23.3c0-12.8,10.4-23.3,23.3-23.3
		c12.8,0,23.3,10.4,23.3,23.3C1530.3,456.2,1520,466.6,1507,466.6z"/>
	<path class="st7" d="M1675.8,412.7c-17.1,0-30.8,13.9-30.8,30.8c0,17.1,13.9,30.8,30.8,30.8c17.1,0,30.8-13.9,30.8-30.8
		C1706.6,426.6,1692.9,412.7,1675.8,412.7z M1675.8,466.6c-12.8,0-23.3-10.4-23.3-23.3c0-12.8,10.4-23.3,23.3-23.3
		c12.8,0,23.3,10.4,23.3,23.3C1699.2,456.2,1688.7,466.6,1675.8,466.6z"/>
	<path class="st7" d="M1675.8,405.8c15.4,0,28.6,9.3,34.4,22.5c1.1-3.4,1.5-7,1.5-10.8c0-20-15.5-36.3-35.2-37.5
		c0.6-1.1,0.9-2.3,0.9-3.5c0-5.5-5.8-10.2-14.2-12.6c-21.9-24.5-68.6-44.2-95.8-44.2c-36.6,0-54.7,4.6-66.3,12.6
		c-10.7,7.5-12.5,25-11.6,39.9c8.7-2,19.8-2.1,29.1-2.1c1.2-19.8,12.5-37.8,41.6-37.8c55.3,0,75.1,33.1,96,43.7
		c-22.2,6.2-20.3,55.9-64.6,55.9c-38.4,0-71.5-34.9-72.8-56.2c-25.4,1.5-36.1,10.2-39.6,14.2c-0.8,3.4-1.2,7.2-1.2,11.1
		c0,5.9,0.9,11.4,2.6,16c6.9-6.9,16.3-11,26.7-11c20.9,0,37.6,16.9,37.6,37.6c0,4-0.6,7.8-1.7,11.3h96.7c-1.1-3.5-1.7-7.3-1.7-11.3
		C1638.4,422.7,1655,405.8,1675.8,405.8z"/>
	<path class="st8" d="M1528,370.1c-1.5,0-2.7,1.2-2.7,2.7s1.2,2.7,2.6,2.7l0,0c56.4,0,53.8,16.1,122,0.5
		C1571.3,386.3,1596.7,370.6,1528,370.1z"/>
</g>
</svg>
