<?xml version="1.0" encoding="utf-8"?>
<!-- Generator: Adobe Illustrator 19.0.0, SVG Export Plug-In . SVG Version: 6.00 Build 0)  -->
<svg version="1.1" id="Layer_1" xmlns="http://www.w3.org/2000/svg" xmlns:xlink="http://www.w3.org/1999/xlink" x="0px" y="0px"
	 viewBox="1 243.5 613 306.5" style="enable-background:new 1 243.5 613 306.5;" xml:space="preserve">
<style type="text/css">
	.st0{fill:url(#SVGID_1_);}
	.st1{opacity:0.44;}
	.st2{fill:none;stroke:#6BAED6;}
	.st3{opacity:0.58;}
	.st4{opacity:0.44;fill:none;stroke:#B30000;enable-background:new    ;}
	.st5{opacity:0.44;fill:#FDBB84;fill-opacity:0.5;stroke:#FDBB84;enable-background:new    ;}
	.st6{opacity:0.44;fill:#B30000;fill-opacity:0.5;stroke:#B30000;enable-background:new    ;}
	.st7{fill:#E47C87;}
	.st8{fill:#F4F7F9;}
	.st9{fill:#FCFCFC;fill-opacity:0.75;}
</style>
<linearGradient id="SVGID_1_" gradientUnits="userSpaceOnUse" x1="1.0393" y1="153.4561" x2="615.0217" y2="153.4561" gradientTransform="matrix(0.9984 0 0 0.9984 6.241560e-02 243.5394)">
	<stop  offset="0" style="stop-color:#DA4453"/>
	<stop  offset="1" style="stop-color:#E47C87"/>
</linearGradient>
<rect x="1.1" y="243.5" class="st0" width="613" height="306.5"/>
<g class="st1">
	<path class="st2" d="M7.7,543.2c5.9,0,23.5,0,35.2,0s23.5-1.1,35.2-1.1s23.5,0,35.2,0s23.5,0,35.2,0s23.5,0,35.2,0
		s23.5-0.7,35.2-0.7s23.5,0.7,35.2,0.5c11.7-0.2,23.5-1.1,35.2-1.5s23.5-0.7,35.2-0.8s23.5-0.2,35.2-0.3c11.7-0.1,23.5-0.5,35.2-0.5
		s23.5,0,35.2,0s23.5,0.1,35.2,0s23.5-0.6,35.2-0.7s23.5,0.5,35.2,0.4s23.6-0.4,35.2-1.5s29.5-4.3,35.2-5.1"/>
</g>
<g>
	<circle class="st2" cx="7.7" cy="543.2" r="2.3"/>
	<circle class="st2" cx="42.9" cy="543.2" r="2.3"/>
	<circle class="st2" cx="78.1" cy="542" r="2.3"/>
	<circle class="st2" cx="113.4" cy="542" r="2.3"/>
	<circle class="st2" cx="148.6" cy="542" r="2.3"/>
	<circle class="st2" cx="183.8" cy="541.9" r="2.3"/>
	<circle class="st2" cx="219.1" cy="541.2" r="2.3"/>
	<circle class="st2" cx="254.3" cy="541.7" r="2.3"/>
	<circle class="st2" cx="289.5" cy="540.2" r="2.3"/>
	<circle class="st2" cx="324.8" cy="539.3" r="2.3"/>
	<circle class="st2" cx="360" cy="539" r="2.3"/>
	<circle class="st2" cx="395.3" cy="538.5" r="2.3"/>
	<circle class="st2" cx="430.5" cy="538.6" r="2.3"/>
	<circle class="st2" cx="465.7" cy="538.6" r="2.3"/>
	<circle class="st2" cx="501" cy="538" r="2.3"/>
	<circle class="st2" cx="536.2" cy="538.3" r="2.3"/>
	<circle class="st2" cx="571.4" cy="536.8" r="2.3"/>
	<circle class="st2" cx="606.7" cy="531.7" r="2.3"/>
</g>
<g class="st3">
	<path class="st4" d="M7.7,520.7c5.9,0.1,23.5,0.6,35.2,0.5s23.5-0.9,35.2-1s23.5,0,35.2-0.2c11.7-0.2,23.5-1,35.2-1.3
		c11.7-0.3,23.5-0.4,35.2-0.3s23.5,0.5,35.2,0.9s23.5,1.2,35.2,1.3c11.7,0.1,23.5-0.5,35.2-0.5s23.5,0.1,35.2,0.1s23.5-0.8,35.2-1.1
		c11.7-0.3,23.5-0.5,35.2-0.7c11.7-0.2,23.5-0.5,35.2-0.7c11.7-0.2,23.5-1,35.2-0.8c11.7,0.2,23.5,2.1,35.2,2.2
		c11.7,0.1,23.5-0.2,35.2-0.2s23.5,0.6,35.2,1s29.4,1,35.2,1.2"/>
</g>
<g class="st3">
	<path class="st5" d="M7.7,542.7c5.9,0.1,23.5,0.4,35.2,0.3c11.7,0,23.5-0.5,35.2-0.6s23.5,0.1,35.2,0.1s23.5,0,35.2-0.1
		s23.5-0.2,35.2-0.2c11.7-0.1,23.5-0.3,35.2-0.2c11.7,0,23.5,0.5,35.2,0.5c11.7,0,23.5-0.3,35.2-0.3s23.5,0.1,35.2,0.1
		s23.5-0.1,35.2-0.2s23.5-0.2,35.2-0.3s23.5,0,35.2,0s23.5-0.1,35.2-0.1s23.5,0.2,35.2,0.3c11.7,0.1,23.5,0.1,35.2,0.2
		s23.5,0.3,35.2,0.4s29.4,0.3,35.2,0.4"/>
</g>
<g>
	<circle class="st6" cx="7.7" cy="520.7" r="2.3"/>
	<circle class="st6" cx="42.9" cy="521.2" r="2.3"/>
	<circle class="st6" cx="78.1" cy="520.2" r="2.3"/>
	<circle class="st6" cx="113.4" cy="520" r="2.3"/>
	<circle class="st6" cx="148.6" cy="518.7" r="2.3"/>
	<circle class="st6" cx="183.8" cy="518.4" r="2.3"/>
	<circle class="st6" cx="219.1" cy="519.3" r="2.3"/>
	<circle class="st6" cx="254.3" cy="520.6" r="2.3"/>
	<circle class="st6" cx="289.5" cy="520.1" r="2.3"/>
	<circle class="st6" cx="324.8" cy="520.1" r="2.3"/>
	<circle class="st6" cx="360" cy="519" r="2.3"/>
	<circle class="st6" cx="395.3" cy="518.4" r="2.3"/>
	<circle class="st6" cx="430.5" cy="517.7" r="2.3"/>
	<circle class="st6" cx="465.7" cy="516.9" r="2.3"/>
	<circle class="st6" cx="501" cy="519.1" r="2.3"/>
	<circle class="st6" cx="536.2" cy="519" r="2.3"/>
	<circle class="st6" cx="571.4" cy="519.9" r="2.3"/>
	<circle class="st6" cx="606.7" cy="521.1" r="2.3"/>
</g>
<g>
	<circle class="st5" cx="7.7" cy="542.7" r="2.3"/>
	<circle class="st5" cx="42.9" cy="543.1" r="2.3"/>
	<circle class="st5" cx="78.1" cy="542.4" r="2.3"/>
	<circle class="st5" cx="113.4" cy="542.6" r="2.3"/>
	<circle class="st5" cx="148.6" cy="542.5" r="2.3"/>
	<circle class="st5" cx="183.8" cy="542.3" r="2.3"/>
	<circle class="st5" cx="219.1" cy="542.1" r="2.3"/>
	<circle class="st5" cx="254.3" cy="542.6" r="2.3"/>
	<circle class="st5" cx="289.5" cy="542.2" r="2.3"/>
	<circle class="st5" cx="324.8" cy="542.4" r="2.3"/>
	<circle class="st5" cx="360" cy="542.2" r="2.3"/>
	<circle class="st5" cx="395.3" cy="541.9" r="2.3"/>
	<circle class="st5" cx="430.5" cy="541.9" r="2.3"/>
	<circle class="st5" cx="465.7" cy="541.9" r="2.3"/>
	<circle class="st5" cx="501" cy="542.1" r="2.3"/>
	<circle class="st5" cx="536.2" cy="542.4" r="2.3"/>
	<circle class="st5" cx="571.4" cy="542.8" r="2.3"/>
	<circle class="st5" cx="606.7" cy="543.2" r="2.3"/>
</g>
<polygon class="st7" points="306.7,430 279.8,420 235.7,385.3 252.5,359.9 291,349.3 353.4,379.8 350.8,397.9 324.9,427.9 "/>
<path class="st8" d="M249.5,407.7c-11.2,0-20.2,9.1-20.2,20.2c0,11.2,9.1,20.2,20.2,20.2c11.2,0,20.2-9.1,20.2-20.2
	C269.8,416.8,260.7,407.7,249.5,407.7z M249.5,443.1c-8.4,0-15.3-6.8-15.3-15.3c0-8.4,6.8-15.3,15.3-15.3c8.4,0,15.3,6.8,15.3,15.3
	S258,443.1,249.5,443.1z"/>
<path class="st8" d="M360.3,407.7c-11.2,0-20.2,9.1-20.2,20.2c0,11.2,9.1,20.2,20.2,20.2c11.2,0,20.2-9.1,20.2-20.2
	S371.5,407.7,360.3,407.7z M360.3,443.1c-8.4,0-15.3-6.8-15.3-15.3c0-8.4,6.8-15.3,15.3-15.3c8.4,0,15.3,6.8,15.3,15.3
	S368.7,443.1,360.3,443.1z"/>
<path class="st8" d="M360.3,403.2c10.1,0,18.8,6.1,22.6,14.8c0.7-2.2,1-4.6,1-7.1c0-13.1-10.2-23.8-23.1-24.6
	c0.4-0.7,0.6-1.5,0.6-2.3c0-3.6-3.8-6.7-9.3-8.3c-14.4-16.1-45-29-62.9-29c-24,0-35.9,3-43.5,8.3c-7,4.9-8.2,16.4-7.6,26.2
	c5.7-1.3,13-1.4,19.1-1.4c0.8-13,8.2-24.8,27.3-24.8c36.3,0,49.3,21.7,63,28.7c-14.6,4.1-13.3,36.7-42.4,36.7
	c-25.2,0-46.9-22.9-47.8-36.9c-16.7,1-23.7,6.7-26,9.3c-0.5,2.2-0.8,4.7-0.8,7.3c0,3.9,0.6,7.5,1.7,10.5c4.5-4.5,10.7-7.2,17.5-7.2
	c13.7,0,24.7,11.1,24.7,24.7c0,2.6-0.4,5.1-1.1,7.4h63.5c-0.7-2.3-1.1-4.8-1.1-7.4C335.7,414.3,346.6,403.2,360.3,403.2z"/>
<path class="st9" d="M263.2,379.8c-1,0-1.8,0.8-1.8,1.8s0.8,1.8,1.7,1.8l0,0c37,0,35.3,10.6,80.1,0.3
	C291.7,390.4,308.3,380.1,263.2,379.8z"/>
</svg>
