<?xml version="1.0" encoding="utf-8"?>
<!-- Generator: Adobe Illustrator 18.0.0, SVG Export Plug-In . SVG Version: 6.00 Build 0)  -->
<!DOCTYPE svg PUBLIC "-//W3C//DTD SVG 1.1//EN" "http://www.w3.org/Graphics/SVG/1.1/DTD/svg11.dtd">
<svg version="1.1" id="Layer_1" xmlns="http://www.w3.org/2000/svg" xmlns:xlink="http://www.w3.org/1999/xlink" x="0px" y="0px"
	 viewBox="0 0 1900 400" enable-background="new 0 0 1900 400" xml:space="preserve">
<rect fill="#43434A" width="1900" height="400"/>
<g>
	<g>
		<g>
			<path fill="#E9B520" d="M904.9,220.9c-7.3,13.7-15.9,21.4-24.3,25c3.1-2.1,10.2-11.3,10.1-19.6c-3.9,13.8-33.4,41.5-77.2,36.8
				c6.1-0.4,25.1-4.4,32.8-22.9c-12,13.5-32.9,27.6-82.4,21.3c2.9-0.4,9.8-0.4,18.3-8.3c-10.6,5.7-45.7,3.9-65-13.8
				c27.9,8,63-7,75.7-20.7c6.5-7,7.6-9.3,10.1-18.7c-8.8,7.6-22.2,22.3-37.1,15.9c5.4,1,15.2-11.3,19.4-17.9
				c3.2-5,6.6-13.6,12.6-22.8c5.2-7.9,11.9-16.9,25.6-16.3c-2.1-3.1-13.6-4.5-23.3,3.1c10.6-18.1,36.6-17.6,44.5-14.4
				c-7.8-8.9-22.2-7.3-24.8-5.7c5.6-2.6,12.5-4.9,17.9-5.2c45.2-3.1,64,21.7,69,36.1C906.7,172.8,917.6,194.7,904.9,220.9z"/>
		</g>
		<g>
			<path fill="#E57925" d="M877,151.3c-11.2-4.3-23-3.6-33.1,1c-14.4,4.6-29,20.2-32.2,56.8c-0.9,10.6-11.9,28.8-28.5,28.9
				c13.5,6.6,33.1-0.4,39.8-10.4c-1.4,6.4-5,9-11.7,15c16-1.2,27-5.8,34.6-11.2c0.1,0.1,0.3,0.1,0.4,0.2
				c22.2,8.5,47.1-2.6,55.5-24.8C910.3,184.7,899.2,159.8,877,151.3z"/>
		</g>
		<circle fill="#D24D27" cx="861.7" cy="191.5" r="34.2"/>
		<g>
			<path fill="#EAF2FA" d="M844.4,176.9v2.4h0.1c0.6-0.9,1.4-1.6,2.3-2.1s1.9-0.7,3.1-0.7c1.1,0,2.1,0.2,3,0.6
				c0.9,0.4,1.6,1.2,2.1,2.3c0.5-0.8,1.2-1.5,2.1-2c0.9-0.6,2-0.9,3.2-0.9c0.9,0,1.8,0.1,2.6,0.3c0.8,0.2,1.5,0.6,2,1.1
				c0.6,0.5,1,1.2,1.3,2c0.3,0.8,0.5,1.8,0.5,2.9v11.8H862v-10c0-0.6,0-1.1-0.1-1.7c0-0.5-0.2-1-0.4-1.4c-0.2-0.4-0.5-0.7-0.9-0.9
				c-0.4-0.2-0.9-0.3-1.6-0.3s-1.2,0.1-1.7,0.4c-0.4,0.3-0.7,0.6-1,1c-0.2,0.4-0.4,0.9-0.5,1.4c-0.1,0.5-0.1,1.1-0.1,1.6v9.8h-4.8
				v-9.9c0-0.5,0-1,0-1.5c0-0.5-0.1-1-0.3-1.4c-0.2-0.4-0.5-0.8-0.9-1c-0.4-0.3-1-0.4-1.8-0.4c-0.2,0-0.5,0-0.9,0.2
				c-0.4,0.1-0.7,0.3-1.1,0.6c-0.4,0.3-0.7,0.7-0.9,1.2c-0.2,0.5-0.4,1.2-0.4,2.1v10.2h-4.8v-17.6L844.4,176.9L844.4,176.9z"/>
			<path fill="#EAF2FA" d="M874.6,190.3c0.7,0.7,1.8,1.1,3.1,1.1c1,0,1.8-0.2,2.5-0.7s1.1-1,1.3-1.5h4.3c-0.7,2.1-1.7,3.6-3.1,4.5
				c-1.4,0.9-3.1,1.4-5.1,1.4c-1.4,0-2.6-0.2-3.8-0.7c-1.1-0.4-2.1-1.1-2.8-1.9c-0.8-0.8-1.4-1.8-1.8-2.9c-0.4-1.1-0.6-2.4-0.6-3.8
				c0-1.3,0.2-2.5,0.6-3.7c0.4-1.1,1-2.1,1.8-2.9c0.8-0.8,1.7-1.5,2.8-2c1.1-0.5,2.3-0.7,3.7-0.7c1.5,0,2.8,0.3,3.9,0.9
				c1.1,0.6,2,1.4,2.7,2.3c0.7,1,1.2,2.1,1.6,3.3c0.3,1.2,0.4,2.6,0.3,3.9h-12.7C873.5,188.4,873.9,189.6,874.6,190.3z M880.1,181
				c-0.6-0.6-1.5-1-2.6-1c-0.8,0-1.4,0.1-1.9,0.4c-0.5,0.3-0.9,0.6-1.2,1c-0.3,0.4-0.5,0.8-0.6,1.2c-0.1,0.4-0.2,0.8-0.2,1.2h7.9
				C881.1,182.6,880.7,181.7,880.1,181z"/>
		</g>
		<g>
			<path fill="#FFFFFF" d="M854.8,205.9c2.7,0.6,5.5,0.9,8.3,0.9c2.9,0,5.7-0.3,8.5-0.9c2.8-0.6,5.5-1.6,8.1-2.9v4.2
				c-2.5,1.5-5.1,2.7-7.8,3.5s-5.5,1.2-8.4,1.2c-1.3,0-2.7-0.1-4.2-0.3c-1.5-0.2-2.9-0.5-4.4-0.9c-1.4-0.4-2.8-0.9-4.2-1.5
				c-1.4-0.6-2.6-1.3-3.7-2.1V203C849.4,204.3,852,205.3,854.8,205.9z"/>
		</g>
	</g>
	<g>
		<path fill="#E2E2E2" d="M952,189h-13.5v52.6h-5.2V189h-10.6V186l10.6-1.9v-4.4c0-7,1.3-12.2,3.9-15.4c2.6-3.3,6.8-4.9,12.6-4.9
			c3.2,0,6.3,0.5,9.5,1.4l-1.2,4.5c-2.8-0.9-5.6-1.3-8.4-1.3c-4.1,0-7,1.2-8.7,3.6c-1.7,2.4-2.6,6.3-2.6,11.7v5.3H952
			C952,184.5,952,189,952,189z M968.3,241.7h-5.2v-81.8h5.2V241.7z"/>
		<path fill="#E2E2E2" d="M1022.1,241.7l-1.3-9h-0.4c-2.9,3.7-5.8,6.3-8.9,7.8s-6.6,2.3-10.8,2.3c-5.6,0-10-1.4-13.1-4.3
			c-3.1-2.9-4.7-6.9-4.7-11.9c0-5.6,2.3-9.9,7-13c4.6-3.1,11.4-4.7,20.2-4.9l10.9-0.3v-3.8c0-5.4-1.1-9.5-3.3-12.3
			c-2.2-2.8-5.8-4.2-10.7-4.2c-5.3,0-10.8,1.5-16.5,4.4l-1.9-4.5c6.3-2.9,12.5-4.4,18.6-4.4c6.3,0,11,1.6,14.1,4.9
			c3.1,3.3,4.7,8.3,4.7,15.3v38L1022.1,241.7L1022.1,241.7z M1001.1,238c6.1,0,10.9-1.7,14.4-5.2c3.5-3.5,5.3-8.3,5.3-14.5v-5.6
			l-10,0.4c-8,0.4-13.7,1.6-17.2,3.8c-3.4,2.1-5.1,5.4-5.1,9.9c0,3.6,1.1,6.4,3.3,8.3C994,237,997.1,238,1001.1,238z"/>
		<path fill="#E2E2E2" d="M1115.9,241.7v-37.5c0-5.6-1.1-9.6-3.3-12.2c-2.2-2.6-5.5-3.8-10-3.8c-5.9,0-10.2,1.6-13,4.8
			c-2.8,3.2-4.2,8.3-4.2,15.2v33.5h-5.3v-39.1c0-9.6-4.4-14.5-13.2-14.5c-6,0-10.4,1.7-13.1,5.2c-2.7,3.5-4.1,9.1-4.1,16.7v31.5
			h-5.2v-57.2h4.3l1.1,7.8h0.3c1.6-2.8,3.8-5,6.7-6.6c2.9-1.6,6.1-2.3,9.6-2.3c9,0,14.8,3.4,17.4,10.1h0.2c1.9-3.3,4.4-5.8,7.5-7.5
			c3.1-1.8,6.7-2.6,10.7-2.6c6.2,0,10.9,1.7,14,5c3.1,3.3,4.7,8.6,4.7,15.9v37.4L1115.9,241.7L1115.9,241.7z"/>
		<path fill="#E2E2E2" d="M1162.6,242.7c-8.3,0-14.8-2.6-19.4-7.7c-4.6-5.1-7-12.3-7-21.5c0-9.1,2.2-16.4,6.7-21.9
			c4.5-5.5,10.5-8.2,18.1-8.2c6.7,0,12,2.3,15.9,7c3.9,4.7,5.8,11.1,5.8,19.1v4.2h-41.2c0.1,7.9,1.9,13.8,5.5,18
			c3.6,4.1,8.7,6.2,15.4,6.2c3.3,0,6.1-0.2,8.6-0.7c2.5-0.5,5.6-1.4,9.4-2.9v4.7c-3.2,1.4-6.2,2.4-8.9,2.9
			C1168.9,242.5,1165.9,242.7,1162.6,242.7z M1161.1,188c-5.5,0-9.9,1.8-13.2,5.4c-3.3,3.6-5.3,8.9-5.8,15.7h35.3
			c0-6.6-1.4-11.8-4.3-15.5C1170.2,189.9,1166.2,188,1161.1,188z"/>
	</g>
</g>
</svg>
