<?xml version="1.0" encoding="utf-8"?>
<!-- Generator: Adobe Illustrator 18.0.0, SVG Export Plug-In . SVG Version: 6.00 Build 0)  -->
<!DOCTYPE svg PUBLIC "-//W3C//DTD SVG 1.1//EN" "http://www.w3.org/Graphics/SVG/1.1/DTD/svg11.dtd">
<svg version="1.1" id="Layer_1" xmlns="http://www.w3.org/2000/svg" xmlns:xlink="http://www.w3.org/1999/xlink" x="0px" y="0px"
	 viewBox="0 72 288 144" enable-background="new 0 72 288 144" xml:space="preserve">
<linearGradient id="SVGID_1_" gradientUnits="userSpaceOnUse" x1="-1.818989e-12" y1="88" x2="800" y2="88" gradientTransform="matrix(0.36 0 0 -0.36 0 175.68)">
	<stop  offset="0" style="stop-color:#43434A"/>
	<stop  offset="1" style="stop-color:#5C5C64"/>
</linearGradient>
<rect y="72" fill="url(#SVGID_1_)" width="288" height="144"/>
<g>
	<g>
		<g>
			<path fill="#E8B521" d="M132,149.5c-1.9,3.6-4.2,5.7-6.5,6.6c0.8-0.6,2.7-3,2.7-5.2c-1,3.7-8.9,11-20.5,9.8
				c1.6-0.1,6.7-1.2,8.7-6.1c-3.2,3.6-8.7,7.3-21.9,5.7c0.8-0.1,2.6-0.1,4.9-2.2c-2.8,1.5-12.1,1.1-17.3-3.7
				c7.4,2.1,16.7-1.9,20.1-5.5c1.7-1.9,2-2.5,2.7-5c-2.3,2-5.9,5.9-9.9,4.2c1.5,0.3,4-3,5.1-4.8c0.8-1.3,1.8-3.6,3.3-6.1
				c1.4-2.1,3.2-4.5,6.8-4.3c-0.5-0.8-3.6-1.2-6.2,0.8c2.8-4.8,9.7-4.7,11.8-3.8c-2.1-2.4-5.9-1.9-6.6-1.5c1.5-0.7,3.3-1.3,4.7-1.4
				c12-0.8,17,5.8,18.3,9.6C132.5,136.8,135.4,142.6,132,149.5z"/>
		</g>
		<g>
			<path fill="#E47927" d="M124.6,131.1c-3-1.1-6.1-0.9-8.8,0.3c-3.8,1.2-7.7,5.4-8.5,15.1c-0.2,2.8-3.2,7.7-7.6,7.7
				c3.6,1.8,8.8-0.1,10.6-2.7c-0.4,1.7-1.3,2.4-3.1,4c4.2-0.3,7.2-1.5,9.2-3c0,0,0.1,0,0.1,0.1c5.9,2.2,12.5-0.7,14.7-6.6
				C133.5,139.9,130.5,133.3,124.6,131.1z"/>
		</g>
		<circle fill="#D24E27" cx="120.5" cy="141.7" r="9.1"/>
		<g>
			<path fill="#EBF3FB" d="M116,137.8v0.6h0c0.2-0.2,0.4-0.4,0.6-0.6c0.2-0.1,0.5-0.2,0.8-0.2c0.3,0,0.6,0.1,0.8,0.2
				c0.2,0.1,0.4,0.3,0.6,0.6c0.1-0.2,0.3-0.4,0.6-0.5c0.2-0.2,0.5-0.2,0.8-0.2c0.2,0,0.5,0,0.7,0.1s0.4,0.2,0.5,0.3
				c0.2,0.1,0.3,0.3,0.4,0.5c0.1,0.2,0.1,0.5,0.1,0.8v3.1h-1.3v-2.6c0-0.2,0-0.3,0-0.4c0-0.1-0.1-0.3-0.1-0.4
				c-0.1-0.1-0.1-0.2-0.2-0.2s-0.2-0.1-0.4-0.1s-0.3,0-0.4,0.1c-0.1,0.1-0.2,0.2-0.3,0.3c-0.1,0.1-0.1,0.2-0.1,0.4
				c0,0.1,0,0.3,0,0.4v2.6h-1.3v-2.6c0-0.1,0-0.3,0-0.4c0-0.1,0-0.3-0.1-0.4c-0.1-0.1-0.1-0.2-0.2-0.3c-0.1-0.1-0.3-0.1-0.5-0.1
				c-0.1,0-0.1,0-0.2,0c-0.1,0-0.2,0.1-0.3,0.2c-0.1,0.1-0.2,0.2-0.2,0.3c-0.1,0.1-0.1,0.3-0.1,0.6v2.7h-1.3v-4.7L116,137.8
				L116,137.8z"/>
			<path fill="#EBF3FB" d="M124,141.4c0.2,0.2,0.5,0.3,0.8,0.3c0.3,0,0.5-0.1,0.7-0.2c0.2-0.1,0.3-0.3,0.4-0.4h1.1
				c-0.2,0.6-0.5,1-0.8,1.2c-0.4,0.2-0.8,0.4-1.3,0.4c-0.4,0-0.7-0.1-1-0.2c-0.3-0.1-0.5-0.3-0.8-0.5c-0.2-0.2-0.4-0.5-0.5-0.8
				c-0.1-0.3-0.2-0.6-0.2-1s0.1-0.7,0.2-1s0.3-0.6,0.5-0.8c0.2-0.2,0.5-0.4,0.8-0.5c0.3-0.1,0.6-0.2,1-0.2c0.4,0,0.8,0.1,1.1,0.2
				s0.5,0.4,0.7,0.6c0.2,0.3,0.3,0.6,0.4,0.9c0.1,0.3,0.1,0.7,0.1,1.1h-3.4C123.7,140.9,123.8,141.2,124,141.4z M125.4,138.9
				c-0.2-0.2-0.4-0.2-0.7-0.2c-0.2,0-0.4,0-0.5,0.1c-0.1,0.1-0.2,0.2-0.3,0.3c-0.1,0.1-0.1,0.2-0.2,0.3c0,0.1-0.1,0.2-0.1,0.3h2.1
				C125.7,139.4,125.6,139.1,125.4,138.9z"/>
		</g>
		<g>
			<path fill="#FFFFFF" d="M118.7,145.6c0.7,0.2,1.5,0.2,2.2,0.2s1.5-0.1,2.2-0.2c0.7-0.2,1.5-0.4,2.2-0.8v1.1
				c-0.6,0.4-1.3,0.7-2.1,0.9c-0.7,0.2-1.5,0.3-2.2,0.3c-0.4,0-0.7,0-1.1-0.1c-0.4-0.1-0.8-0.1-1.2-0.2c-0.4-0.1-0.8-0.2-1.1-0.4
				c-0.4-0.2-0.7-0.4-1-0.6v-1.1C117.3,145.1,118,145.4,118.7,145.6z"/>
		</g>
	</g>
	<g>
		<path fill="#F5F5F7" d="M144.5,141.1H141v14h-1.4v-14h-2.8v-0.8l2.8-0.5v-1.2c0-1.9,0.4-3.2,1-4.1c0.7-0.9,1.8-1.3,3.4-1.3
			c0.8,0,1.7,0.1,2.5,0.4l-0.3,1.2c-0.8-0.2-1.5-0.4-2.2-0.4c-1.1,0-1.8,0.3-2.3,0.9c-0.5,0.6-0.7,1.7-0.7,3.1v1.4h3.6
			C144.5,139.9,144.5,141.1,144.5,141.1z M148.9,155.1h-1.4v-21.7h1.4V155.1z"/>
		<path fill="#F5F5F7" d="M163.2,155.1l-0.4-2.4h-0.1c-0.8,1-1.5,1.7-2.3,2.1s-1.8,0.6-2.9,0.6c-1.5,0-2.6-0.4-3.5-1.1
			c-0.8-0.8-1.2-1.8-1.2-3.2c0-1.5,0.6-2.6,1.9-3.5c1.2-0.8,3-1.2,5.4-1.3l2.9-0.1v-1c0-1.5-0.3-2.5-0.9-3.3
			c-0.6-0.7-1.5-1.1-2.8-1.1c-1.4,0-2.9,0.4-4.4,1.2l-0.5-1.2c1.7-0.8,3.3-1.2,4.9-1.2c1.7,0,2.9,0.4,3.7,1.3c0.8,0.9,1.2,2.2,1.2,4
			v10.1L163.2,155.1L163.2,155.1z M157.6,154.1c1.6,0,2.9-0.5,3.8-1.4c0.9-0.9,1.4-2.2,1.4-3.9v-1.5l-2.6,0.1
			c-2.1,0.1-3.6,0.4-4.6,1c-0.9,0.6-1.3,1.4-1.3,2.6c0,0.9,0.3,1.7,0.9,2.2C155.7,153.8,156.5,154.1,157.6,154.1z"/>
		<path fill="#F5F5F7" d="M188,155.1v-9.9c0-1.5-0.3-2.6-0.9-3.2c-0.6-0.7-1.5-1-2.6-1c-1.6,0-2.7,0.4-3.5,1.3
			c-0.8,0.9-1.1,2.2-1.1,4v8.9h-1.4v-10.4c0-2.6-1.2-3.8-3.5-3.8c-1.6,0-2.7,0.5-3.5,1.4c-0.7,0.9-1.1,2.4-1.1,4.4v8.4h-1.4v-15.2
			h1.1l0.3,2.1h0.1c0.4-0.8,1-1.3,1.8-1.8c0.8-0.4,1.6-0.6,2.6-0.6c2.4,0,3.9,0.9,4.6,2.7h0.1c0.5-0.9,1.2-1.5,2-2s1.8-0.7,2.8-0.7
			c1.6,0,2.9,0.4,3.7,1.3c0.8,0.9,1.2,2.3,1.2,4.2v9.9L188,155.1L188,155.1z"/>
		<path fill="#F5F5F7" d="M200.5,155.3c-2.2,0-3.9-0.7-5.1-2c-1.2-1.3-1.9-3.3-1.9-5.7c0-2.4,0.6-4.4,1.8-5.8
			c1.2-1.5,2.8-2.2,4.8-2.2c1.8,0,3.2,0.6,4.2,1.9c1,1.2,1.6,2.9,1.6,5.1v1.1h-10.9c0,2.1,0.5,3.7,1.5,4.8c0.9,1.1,2.3,1.6,4.1,1.6
			c0.9,0,1.6-0.1,2.3-0.2c0.6-0.1,1.5-0.4,2.5-0.8v1.3c-0.9,0.4-1.6,0.6-2.4,0.8C202.1,155.3,201.4,155.3,200.5,155.3z M200.1,140.8
			c-1.5,0-2.6,0.5-3.5,1.5s-1.4,2.3-1.6,4.2h9.4c0-1.8-0.4-3.1-1.1-4.1C202.5,141.3,201.4,140.8,200.1,140.8z"/>
	</g>
</g>
</svg>
