<?xml version="1.0" encoding="utf-8"?>
<!-- Generator: Adobe Illustrator 18.0.0, SVG Export Plug-In . SVG Version: 6.00 Build 0)  -->
<!DOCTYPE svg PUBLIC "-//W3C//DTD SVG 1.1//EN" "http://www.w3.org/Graphics/SVG/1.1/DTD/svg11.dtd">
<svg version="1.1" id="Layer_1" xmlns="http://www.w3.org/2000/svg" xmlns:xlink="http://www.w3.org/1999/xlink" x="0px" y="0px"
	 viewBox="-0.7 507.8 288.2 60.9" enable-background="new -0.7 507.8 288.2 60.9" xml:space="preserve">
<linearGradient id="SVGID_1_" gradientUnits="userSpaceOnUse" x1="-0.7014" y1="538.2" x2="287.4712" y2="538.2">
	<stop  offset="0" style="stop-color:#EC8D40"/>
	<stop  offset="1" style="stop-color:#F9BE93"/>
</linearGradient>
<rect x="-0.7" y="507.8" fill="url(#SVGID_1_)" width="288.2" height="60.9"/>
<g>
	<path fill="#FCFCFC" d="M153.2,547.4l-2.6-6.8c0-0.1-0.1-0.2-0.2-0.2l-3.9-1.6c-0.1,0-0.2,0-0.3,0l-0.1,0.1c1.2-1.8,2.5-4.2,2.5-6
		c0-2.5-2-4.5-4.5-4.5c-2.5,0-4.5,2-4.5,4.5c0,2.1,2,5.3,3.3,7.1l-3.8-1.3c-0.1,0-0.3,0-0.4,0.1l-4.8,4.9c-0.1,0.1-0.1,0.2-0.1,0.3
		c0,0.1,0.1,0.2,0.2,0.3l6.2,3.6l0,0l0,0c0,0,0,0,0,0c0,0,0,0,0.1,0h0h0c0,0,0,0,0.1,0c0,0,0,0,0,0l0,0h0c0,0,0.1,0,0.1,0
		c0,0,0,0,0,0c0,0,0,0,0,0l5.4-2.7c0,0,0.1,0,0.1,0h0c0,0,0.1,0,0.1,0l6.5,2.7c0,0,0.1,0,0.1,0c0.1,0,0.2,0,0.3-0.1
		C153.2,547.7,153.3,547.5,153.2,547.4z M143.1,536.8c0-0.5,0.4-1,0.9-1c0.5,0,1,0.5,1,1s-0.5,0.9-1,0.9
		C143.6,537.8,143.1,537.4,143.1,536.8z M142.2,531.6c-0.1-0.1-0.1-0.2,0-0.3c0,0,0.7-0.9,2.1-0.9c1.1,0,2.1,0.7,2.1,1.8
		c0,1.4-1.6,1.4-1.6,2.5c0,0.1-0.1,0.2-0.2,0.2h-1.1c-0.1,0-0.2-0.1-0.2-0.2v-0.4c0-0.9,1.4-1.2,1.4-1.9c0-0.3-0.3-0.6-0.7-0.6
		c-0.7,0-0.9,0.6-1.2,0.4L142.2,531.6z M140.1,544.3c0.3,0.1,0.5,0.1,0.8,0.2c0,0,0,0,0,0c0.1,0,0.1,0,0.1-0.1l-0.9,2.5l-5.4-3.1
		l2.4-2.5c0.1,0.1,0.1,0.3,0.2,0.5c0,0.1,0.1,0.1,0.2,0.1c0,0,0.1,0,0.1,0c0.1-0.1,0.1-0.2,0.1-0.3c-0.1-0.3-0.3-0.5-0.3-0.6
		l1.6-1.6l3.3,1.1l-1.3,3.7c0-0.1-0.1-0.1-0.1-0.2c-0.3,0-0.5-0.1-0.7-0.2c-0.1,0-0.2,0-0.3,0.1C139.9,544.2,140,544.3,140.1,544.3z
		 M145.8,541.8c-0.1,0.1-0.1,0.2,0,0.3c0,0,0,0,0,0l-0.1,2.4l-4.6,2.3l2.2-6.1l0.1-0.1c0.3,0.4,0.5,0.6,0.5,0.6
		c0.1,0.1,0.2,0.1,0.3,0.1l0,0c0.1,0,0.2-0.1,0.3-0.1c0.1-0.1,0.5-0.6,1-1.4l0.5-0.2L145.8,541.8z M146.5,544.5l0.1-2.6
		c0,0,0.1,0,0.1,0c0.1,0,0.2-0.1,0.1-0.2c0-0.1-0.1-0.2-0.2-0.1l0,0l0.1-1.8l3.3,1.3l2.2,5.8L146.5,544.5z"/>
	<path fill="#FCFCFC" d="M138.6,542.8c-0.1-0.1-0.2-0.1-0.3,0c-0.1,0.1-0.1,0.2,0,0.3c0.2,0.2,0.4,0.4,0.6,0.6c0,0,0.1,0,0.1,0
		c0.1,0,0.1,0,0.1-0.1c0.1-0.1,0.1-0.2,0-0.3C138.9,543.1,138.7,543,138.6,542.8z"/>
	<path fill="#FCFCFC" d="M142.9,543.7c-0.2,0.1-0.5,0.2-0.7,0.3c-0.1,0-0.1,0.1-0.1,0.3c0,0.1,0.1,0.1,0.2,0.1c0,0,0,0,0.1,0
		c0.3-0.1,0.5-0.2,0.7-0.3c0.1,0,0.1-0.1,0.1-0.3C143.1,543.7,143,543.6,142.9,543.7z"/>
	<path fill="#FCFCFC" d="M148.8,541.8c-0.3-0.1-0.5-0.2-0.8-0.3c-0.1,0-0.2,0-0.2,0.1c0,0.1,0,0.2,0.1,0.2c0.2,0.1,0.5,0.1,0.7,0.2
		c0,0,0.1,0,0.1,0c0.1,0,0.1,0,0.2-0.1C149,541.9,148.9,541.8,148.8,541.8z"/>
	<path fill="#FCFCFC" d="M144.7,542.6c-0.2,0.1-0.5,0.3-0.6,0.4c-0.1,0.1-0.1,0.2-0.1,0.3c0,0.1,0.1,0.1,0.2,0.1c0,0,0.1,0,0.1,0
		c0.2-0.1,0.4-0.3,0.7-0.4c0.1-0.1,0.1-0.2,0-0.3C144.9,542.6,144.8,542.6,144.7,542.6z"/>
	<path fill="#FCFCFC" d="M149.8,542.5c-0.1,0.1-0.1,0.2,0,0.3c0.2,0.1,0.4,0.3,0.6,0.5c0,0,0.1,0.1,0.1,0.1c0.1,0,0.1,0,0.1-0.1
		c0.1-0.1,0.1-0.2,0-0.3c-0.2-0.2-0.4-0.4-0.6-0.5C149.9,542.4,149.8,542.4,149.8,542.5z"/>
</g>
</svg>
