<?xml version="1.0" encoding="utf-8"?>
<!-- Generator: Adobe Illustrator 18.0.0, SVG Export Plug-In . SVG Version: 6.00 Build 0)  -->
<!DOCTYPE svg PUBLIC "-//W3C//DTD SVG 1.1//EN" "http://www.w3.org/Graphics/SVG/1.1/DTD/svg11.dtd">
<svg version="1.1" id="Layer_1" xmlns="http://www.w3.org/2000/svg" xmlns:xlink="http://www.w3.org/1999/xlink" x="0px" y="0px"
	 viewBox="36.3 569.3 288.5 144.2" enable-background="new 36.3 569.3 288.5 144.2" xml:space="preserve">
<linearGradient id="SVGID_1_" gradientUnits="userSpaceOnUse" x1="36.3" y1="641.4" x2="324.7698" y2="641.4">
	<stop  offset="0" style="stop-color:#EC8D40"/>
	<stop  offset="1" style="stop-color:#F9BE93"/>
</linearGradient>
<rect x="36.3" y="569.3" fill="url(#SVGID_1_)" width="288.5" height="144.2"/>
<g>
	<path fill="#FCFCFC" d="M204,655.2l-6.3-16.3c-0.1-0.2-0.3-0.4-0.5-0.5l-9.3-3.8c-0.2-0.1-0.5-0.1-0.7,0l-0.3,0.1
		c2.8-4.3,6-10.2,6-14.3c0-5.9-4.8-10.7-10.8-10.7c-5.9,0-10.8,4.8-10.8,10.7c0,5.1,4.8,12.7,7.8,17l-9.1-3.1c-0.3-0.1-0.7,0-1,0.2
		l-11.5,11.8c-0.2,0.2-0.3,0.5-0.2,0.8c0,0.3,0.2,0.5,0.5,0.7l14.9,8.6l0,0l0,0c0,0,0,0,0,0c0,0,0.1,0,0.1,0h0h0c0,0,0.1,0,0.2,0
		c0,0,0,0,0,0l0,0h0c0,0,0.1,0,0.2,0c0,0,0,0,0.1,0c0,0,0,0,0.1,0l13.1-6.4c0.1,0,0.2,0,0.3,0h0c0.1,0,0.1,0,0.2,0l15.7,6.4
		c0.1,0,0.2,0,0.4,0c0.2,0,0.5-0.1,0.7-0.3C204,656,204.1,655.5,204,655.2z M179.7,629.8c0-1.3,1-2.3,2.3-2.3c1.3,0,2.3,1.1,2.3,2.3
		c0,1.3-1.1,2.3-2.3,2.3C180.8,632.2,179.7,631.1,179.7,629.8z M177.5,617.3c-0.2-0.2-0.2-0.5,0-0.7c0,0,1.8-2.2,5-2.2
		c2.6,0,5,1.8,5,4.3c0,3.2-3.7,3.3-3.7,6c0,0.3-0.2,0.5-0.5,0.5h-2.6c-0.2,0-0.5-0.2-0.5-0.5v-1c0-2.1,3.4-3,3.4-4.6
		c0-0.8-0.8-1.5-1.8-1.5c-1.7,0-2.2,1.6-2.8,1L177.5,617.3z M172.4,647.7c0.6,0.2,1.3,0.4,1.9,0.5c0,0,0,0,0.1,0
		c0.1,0,0.2,0,0.3-0.1l-2.1,6.1l-12.9-7.4l5.8-6c0.1,0.3,0.3,0.7,0.6,1.2c0.1,0.1,0.2,0.2,0.4,0.2c0.1,0,0.1,0,0.2,0
		c0.2-0.1,0.3-0.4,0.2-0.7c-0.4-0.7-0.6-1.2-0.7-1.5l3.7-3.8l8,2.7l-3.1,8.8c0-0.2-0.2-0.4-0.4-0.4c-0.6-0.1-1.2-0.2-1.7-0.4
		c-0.2-0.1-0.5,0-0.6,0.3C172,647.4,172.2,647.6,172.4,647.7z M186.2,641.8c-0.2,0.1-0.2,0.4-0.1,0.6c0,0,0,0,0,0.1l-0.2,5.6
		l-11.1,5.5l5.2-14.6l0.3-0.1c0.7,0.9,1.1,1.4,1.2,1.5c0.1,0.2,0.4,0.3,0.7,0.3l0,0c0.3,0,0.5-0.1,0.7-0.3c0.1-0.1,1.1-1.4,2.3-3.2
		l1.3-0.5L186.2,641.8z M187.8,648.3l0.2-6.2c0.1,0,0.1,0,0.2,0c0.2,0,0.4-0.3,0.4-0.6c0-0.2-0.3-0.4-0.6-0.4l0,0l0.1-4.2l7.8,3.2
		l5.4,13.9L187.8,648.3z"/>
	<path fill="#FCFCFC" d="M168.7,644.1c-0.2-0.2-0.5-0.2-0.7,0c-0.2,0.2-0.2,0.5,0,0.7c0.4,0.5,0.9,0.9,1.4,1.4
		c0.1,0.1,0.2,0.1,0.3,0.1c0.1,0,0.3,0,0.4-0.2c0.2-0.2,0.1-0.5,0-0.7C169.6,644.9,169.2,644.5,168.7,644.1z"/>
	<path fill="#FCFCFC" d="M179.2,646.2c-0.6,0.2-1.1,0.5-1.7,0.7c-0.2,0.1-0.4,0.3-0.3,0.6c0,0.2,0.2,0.3,0.5,0.3c0,0,0.1,0,0.1,0
		c0.6-0.2,1.2-0.4,1.8-0.7c0.2-0.1,0.3-0.4,0.2-0.6C179.7,646.2,179.4,646.1,179.2,646.2z"/>
	<path fill="#FCFCFC" d="M193.5,641.7c-0.6-0.3-1.3-0.5-1.9-0.6c-0.2,0-0.5,0.1-0.6,0.4c0,0.2,0.1,0.5,0.4,0.6
		c0.6,0.1,1.1,0.3,1.7,0.6c0,0,0.1,0,0.2,0c0.2,0,0.4-0.1,0.4-0.3C193.8,642.1,193.7,641.8,193.5,641.7z"/>
	<path fill="#FCFCFC" d="M183.5,643.7c-0.6,0.4-1.1,0.7-1.6,1c-0.2,0.1-0.3,0.4-0.1,0.7c0.1,0.1,0.2,0.2,0.4,0.2
		c0.1,0,0.2,0,0.2-0.1c0.5-0.3,1-0.7,1.6-1c0.2-0.1,0.3-0.4,0.1-0.7C184.1,643.6,183.8,643.6,183.5,643.7z"/>
	<path fill="#FCFCFC" d="M195.7,643.5c-0.1,0.2-0.1,0.5,0.1,0.7c0.5,0.4,0.9,0.8,1.4,1.2c0.1,0.1,0.2,0.1,0.3,0.1s0.2,0,0.3-0.1
		c0.2-0.2,0.2-0.5,0-0.7c-0.5-0.5-1-0.9-1.5-1.3C196.1,643.3,195.9,643.3,195.7,643.5z"/>
</g>
</svg>
