<?xml version="1.0" encoding="utf-8"?>
<!-- Generator: Adobe Illustrator 18.0.0, SVG Export Plug-In . SVG Version: 6.00 Build 0)  -->
<!DOCTYPE svg PUBLIC "-//W3C//DTD SVG 1.1//EN" "http://www.w3.org/Graphics/SVG/1.1/DTD/svg11.dtd">
<svg version="1.1" id="Layer_1" xmlns="http://www.w3.org/2000/svg" xmlns:xlink="http://www.w3.org/1999/xlink" x="0px" y="0px"
	 viewBox="0 0 1900 400" enable-background="new 0 0 1900 400" xml:space="preserve">
<linearGradient id="SVGID_1_" gradientUnits="userSpaceOnUse" x1="-549.9999" y1="200" x2="1350" y2="200" gradientTransform="matrix(1 0 0 -1 550 400)">
	<stop  offset="0" style="stop-color:#E9573F"/>
	<stop  offset="1" style="stop-color:#FC8851"/>
</linearGradient>
<linearGradient id="SVGID_2_" gradientUnits="userSpaceOnUse" x1="-550.4999" y1="200" x2="1350.5" y2="200" gradientTransform="matrix(1 0 0 -1 550 400)">
	<stop  offset="0" style="stop-color:#D31D50"/>
	<stop  offset="1" style="stop-color:#F5F4B9"/>
</linearGradient>
<rect x="0" y="0" fill="url(#SVGID_1_)" stroke="url(#SVGID_2_)" width="1900" height="400"/>
<g id="Your_Icon">
	<g>
		<path fill="#FFFFFF" d="M928,207.8c-13.3-8.5-43.2-10.6-43.2-10.6s-16.1-13.3-31.1-19.9s-29-4.7-46.8-1.9
			c-17.8,2.7-30.7,15.5-38.1,20.3c-7.4,4.9-18.8,4.7-18.8,4.7v35.4h6.6c0,0,3.8-19.7,21.4-19.7c17.6,0,21.8,19.7,21.8,19.7h78.4
			c0,0,0.8-19.7,20.5-19.7s22.5,19.7,22.5,19.7H938C938,235.8,941.3,216.2,928,207.8z M816.8,201h-30.9
			c3.1-19.1,30.9-19.7,30.9-19.7V201z M824.8,201v-21c27.1-1.9,48.1,21,48.1,21H824.8z"/>
		<path fill="#FFFFFF" d="M777.8,223c-8.3,0-15,6.7-15,15s6.7,15,15,15s15-6.7,15-15C792.8,229.8,786,223,777.8,223z M777.8,244.5
			c-3.6,0-6.4-2.9-6.4-6.4c0-3.6,2.9-6.4,6.4-6.4s6.4,2.9,6.4,6.4C784.2,241.6,781.3,244.5,777.8,244.5z"/>
		<path fill="#FFFFFF" d="M899.5,223c-8.3,0-15,6.7-15,15s6.7,15,15,15s15-6.7,15-15S907.8,223,899.5,223z M899.5,244.5
			c-3.5,0-6.4-2.9-6.4-6.4c0-3.6,2.9-6.4,6.4-6.4c3.6,0,6.4,2.9,6.4,6.4S903,244.5,899.5,244.5z"/>
	</g>
	<g>
		<path fill="#FFFFFF" d="M961.8,235.8h16.9c0,0,2.8-19.7,22.5-19.7c19.7,0,20.6,19.7,20.6,19.7h78.4c0,0,4.2-19.7,21.8-19.7
			s21.4,19.7,21.4,19.7h6.6v-35.4c0,0-11.4,0.2-18.8-4.7c-7.4-4.9-20.3-17.6-38.1-20.3c-17.8-2.8-31.8-4.7-46.8,1.9
			s-31.1,19.9-31.1,19.9s-29.9,2.1-43.2,10.6C958.5,216.2,961.8,235.8,961.8,235.8z M1083.1,181.3c0,0,27.8,0.6,30.9,19.7h-30.9
			V181.3z M1027,201c0,0,21-22.9,48.1-21v21H1027z"/>
		<path fill="#FFFFFF" d="M1107,238c0,8.3,6.7,15,15,15c8.3,0,15-6.7,15-15s-6.7-15-15-15C1113.8,223,1107,229.8,1107,238z
			 M1115.6,238c0-3.6,2.9-6.4,6.4-6.4c3.6,0,6.4,2.9,6.4,6.4c0,3.6-2.9,6.4-6.4,6.4C1118.5,244.5,1115.6,241.6,1115.6,238z"/>
		<path fill="#FFFFFF" d="M985.3,238c0,8.3,6.7,15,15,15s15-6.7,15-15s-6.7-15-15-15S985.3,229.8,985.3,238z M994,238
			c0-3.6,2.9-6.4,6.4-6.4s6.4,2.9,6.4,6.4c0,3.6-2.9,6.4-6.4,6.4S994,241.6,994,238z"/>
	</g>
	<g>
		<path fill="#FFFFFF" d="M967.2,185.5l18.1-10.3l-20.8,0.1l10.5-18l-18,10.5l0.1-20.9l-10.3,18.1L936.6,147l0.1,20.8l-18-10.5
			l10.5,18l-20.9-0.1l18.1,10.3l-18.1,10.3h9.4c3.6-2.9,8.2-5.3,13.4-6.9l5.9-3.4l-8.7-4.9l10,0.1l-5-8.6l8.6,5v-10l4.9,8.7l4.9-8.7
			l-0.1,10l8.6-5l-5,8.6l10-0.1l-8.7,5l8.6,4.9c3.5,1.4,6.6,3.3,9.2,5.4l11,0.1L967.2,185.5z"/>
	</g>
</g>
</svg>
