<?xml version="1.0" encoding="utf-8"?>
<!-- Generator: Adobe Illustrator 18.0.0, SVG Export Plug-In . SVG Version: 6.00 Build 0)  -->
<!DOCTYPE svg PUBLIC "-//W3C//DTD SVG 1.1//EN" "http://www.w3.org/Graphics/SVG/1.1/DTD/svg11.dtd">
<svg version="1.1" id="Layer_1" xmlns="http://www.w3.org/2000/svg" xmlns:xlink="http://www.w3.org/1999/xlink" x="0px" y="0px"
	 viewBox="0 0 1900 400" enable-background="new 0 0 1900 400" xml:space="preserve">
<linearGradient id="SVGID_1_" gradientUnits="userSpaceOnUse" x1="0" y1="199" x2="1900" y2="199">
	<stop  offset="0" style="stop-color:#F7D365"/>
	<stop  offset="1" style="stop-color:#FBE08E"/>
</linearGradient>
<rect y="-1" fill="url(#SVGID_1_)" width="1900" height="400"/>
<g>
	<path fill="#421102" d="M988.1,203.2c0,2-1.6,3.4-3.4,3.4c-2,0-3.4-1.6-3.4-3.4c0-2,1.6-3.4,3.4-3.4
		C986.7,199.7,988.1,201.2,988.1,203.2z"/>
	<path fill="#D85525" d="M1015.1,228.3c-4.2-7-8.6-16.3-12.9-25.3c-7-14.7-13.5-28.6-20.5-35.6c-2.6-2.6-6.2-4.8-10.5-6.2
		c2.4-10.5,0.4-27.5-5.4-33.2c-1-1-2.2,5-5.4,7.4c-4.2,3.4-14.1,11.1-11.9,24.5c-9.7,1.8-18.9,6.6-25.9,13.3
		c-10.3,10.3-44.2,47.7-44.6,95.9c0,0.8,0.4,1.6,0.8,2.2c0.6,0.6,1.4,0.8,2.2,0.8h54.3c0.8,0,1.6-0.4,2.2-1c1.4-1.4,3.4-3.6,5.8-6.2
		c6.4-6.8,17.9-19.5,21.1-21.5c0.6-0.4,1.4-0.6,2-0.6c3,0,6.8,4.4,10.7,9.2c2,2.4,4,4.8,6.4,7.2c2.6,2.6,10.1,10.3,19.3,10.3
		c4.2,0,8.2-1.6,11.5-5C1024.3,256,1024.5,243.6,1015.1,228.3L1015.1,228.3z M985.5,194.3c5,0,7,4,7,9c0,5-2,9-7,9s-9-4-9-9
		C976.5,198.3,980.5,194.3,985.5,194.3z M939.1,261.1c-0.2,0.4-0.6,0.6-0.8,0.8c-3.8-3-12.9-4.6-27.3-4.6c-3.6,0-6.6-2.6-9.7-5.2
		c-3.8-3.2-8-6.8-13.9-6.8c0.4-2,1-4,1.6-6c7.2,0.6,12.3,4.8,16.1,8.2c2.2,1.8,4.6,3.8,6,3.8c10.3,0,24.7,0.8,31.2,6.2
		C941.3,258.7,940.3,259.9,939.1,261.1z M950.3,249.2c-5.6-16.1-27.9-21.7-33-21.7c-4.2,0-7.8-3.6-11.1-6.8c-2.2-2.2-5.2-5.2-7-5.2
		l0,0c1-1.8,2-3.6,3-5.4c3,1.2,5.6,3.8,8.2,6.4c2.2,2.2,5.2,5.2,7,5.2c6.4,0,29.6,5.6,37.6,23.1
		C953.4,245.8,951.9,247.4,950.3,249.2z M968.2,237.3c-0.4,0-1-0.2-1.4-0.2c-1.4,0-2.6,0.4-4,1c-0.2-0.2-0.2-0.4-0.4-0.6
		c-0.2-0.4-0.2-0.8-0.2-1.2c0-10.5-11.3-21.7-22.3-27.3c-8.6-4.2-11.7-11.1-14.3-16.9c-1.4-3.2-2.6-5.8-4.6-7.8c0,0-0.2-0.2-0.2-0.4
		c1.4-1.6,2.8-3,4-4.4c0.2,0.2,0.4,0.2,0.6,0.4c2.6,2.6,4.2,6,5.8,9.4c2.4,5.2,5,10.7,11.5,13.9c9.4,4.6,19.1,13.1,23.5,22.7
		c1.4-6.4,2.2-16.7,2.2-32c0-3.6,1.6-8.2,3.2-12.9c1.4-4.2,2.8-8.6,2.8-11.1c0-0.4,0-0.8,0.2-1c1.2,0.8,2.4,1.6,3.2,2.4
		c0.6,0.6,1.4,1.6,2.2,2.4c-0.6,2.8-1.6,6-2.8,9.2c-1.4,4.2-2.8,8.6-2.8,10.9C974.1,217.6,972.1,231.9,968.2,237.3L968.2,237.3z
		 M978.9,244.8c-1.4-1.6-2.8-3-4.2-4.2c0.4-0.6,0.8-1,1.4-1.2c8.8-2.8,10.9-9,13.1-15.3c2-5.4,4-10.7,9.5-13.9
		c0.8,1.8,1.8,3.6,2.6,5.6c-3.6,2.2-5,6.2-6.6,10.5C992.6,232.9,989.6,241,978.9,244.8z M1006.8,250c-3,4.6-6.2,9.2-9.4,12.3
		c-1.8-0.8-3.6-2-5-3.2c0.2-0.4,0.4-0.8,0.6-1c2.8-2.8,5.8-7.2,8.6-11.5c3-4.6,6.2-9.2,9.4-12.5c0.2-0.2,0.2-0.2,0.4-0.2
		c1.2,2,2,4,2.6,5.8C1011.7,242.6,1009.1,246.4,1006.8,250z"/>
	<path fill="#FFFFFF" d="M984.7,202c0,0.4-0.4,0.8-0.8,0.8s-0.8-0.4-0.8-0.8s0.4-0.8,0.8-0.8C984.3,201.4,984.7,201.6,984.7,202z"/>
</g>
</svg>
