<?xml version="1.0" encoding="utf-8"?>
<!-- Generator: Adobe Illustrator 18.0.0, SVG Export Plug-In . SVG Version: 6.00 Build 0)  -->
<!DOCTYPE svg PUBLIC "-//W3C//DTD SVG 1.1//EN" "http://www.w3.org/Graphics/SVG/1.1/DTD/svg11.dtd">
<svg version="1.1" id="Layer_1" xmlns="http://www.w3.org/2000/svg" xmlns:xlink="http://www.w3.org/1999/xlink" x="0px" y="0px"
	 viewBox="550 0 800 400" enable-background="new 550 0 800 400" xml:space="preserve">
<linearGradient id="SVGID_1_" gradientUnits="userSpaceOnUse" x1="550" y1="200" x2="1350" y2="200">
	<stop  offset="0" style="stop-color:#F7D365"/>
	<stop  offset="1" style="stop-color:#FBE08E"/>
</linearGradient>
<rect x="550" fill="url(#SVGID_1_)" width="800" height="400"/>
<g id="Layer_1_1_">
	<g>
		<path fill="#4E5C73" d="M878.3,226.4c2.9,2.5,6,4.3,11,4.3c5.4,0,8.2-3.2,8.2-6.8c0-4.3-4.4-6.1-8.3-7.6c-5.3-1.8-11-3.9-11-9.8
			c0-5,3.9-9.1,11.1-9.1c3.6,0,7.3,1.5,9.8,3.6l-1.7,2.2c-2.2-1.7-4.7-3-8.2-3c-5.3,0-7.8,3-7.8,6.2c0,3.9,4,5.4,8,6.9
			c5.4,1.9,11.2,3.7,11.2,10.5c0,5.1-4.2,9.7-11.6,9.7c-5.1,0-9.6-2.1-12.6-4.7L878.3,226.4z"/>
		<path fill="#4E5C73" d="M922.1,197.4c8.3,0,15.4,6.5,15.4,18c0,11.4-7.2,17.9-15.4,17.9s-15.4-6.5-15.4-17.9
			S914,197.4,922.1,197.4z M922.1,230.7c6.9,0,12.2-6.1,12.2-15.1c0-9-5.3-15.2-12.2-15.2c-6.9,0-12.1,6.2-12.1,15.2
			C910.1,224.4,915.2,230.7,922.1,230.7z"/>
		<path fill="#4E5C73" d="M960.7,197.4c4.7,0,7.8,2.1,10.1,4.2l-1.8,2.2c-2.2-2.1-4.9-3.6-8.2-3.6c-7.1,0-12.5,6.2-12.5,15.2
			c0,9,5,15.1,12.5,15.1c3.6,0,6.8-1.8,9.1-3.9l1.7,2.1c-2.9,2.6-6.5,4.6-11,4.6c-8.9,0-15.5-6.5-15.5-17.9
			C945,204.1,952.4,197.4,960.7,197.4z"/>
		<path fill="#4E5C73" d="M978.7,187.1c0-1.8,1.2-2.9,2.9-2.9c1.5,0,2.9,1.1,2.9,2.9c0,1.7-1.2,2.8-2.9,2.8
			C980.1,189.9,978.7,188.8,978.7,187.1z M979.9,198.2h3.2v34.2h-3.2V198.2z"/>
		<path fill="#4E5C73" d="M1016.5,211.1c0.1-5.3-1.4-10.8-8-10.8c-4.7,0-8.6,2.2-11,4l-1.4-2.4c2.5-1.7,7.2-4.4,12.8-4.4
			c8.2,0,10.8,5.8,10.8,13.2v21.9h-2.6l-0.4-4.4h-0.1c-3.5,2.8-7.6,5.3-12.2,5.3c-5.4,0-10-2.9-10-9.4
			C994.4,216.4,1001.3,212.8,1016.5,211.1z M1004.9,230.7c3.9,0,7.5-1.9,11.6-5.5v-11.6c-14.1,1.7-18.9,5-18.9,10.4
			C997.7,228.7,1001,230.7,1004.9,230.7z"/>
		<path fill="#4E5C73" d="M1031.9,181.2h3.2v47.3c0,1.5,0.7,2.2,1.5,2.2c0.3,0,0.6,0,1.2-0.1l0.6,2.6c-0.7,0.3-1.2,0.4-2.2,0.4
			c-2.8,0-4.2-1.7-4.2-5.4v-47H1031.9z"/>
		<path fill="#4E5C73" d="M1049,181.2h3.2v47.3c0,1.5,0.7,2.2,1.5,2.2c0.3,0,0.6,0,1.2-0.1l0.6,2.6c-0.7,0.3-1.2,0.4-2.2,0.4
			c-2.8,0-4.2-1.7-4.2-5.4v-47H1049z"/>
		<path fill="#4E5C73" d="M1064.6,187.1c0-1.8,1.2-2.9,2.9-2.9c1.5,0,2.9,1.1,2.9,2.9c0,1.7-1.2,2.8-2.9,2.8
			C1065.9,189.9,1064.6,188.8,1064.6,187.1z M1065.9,198.2h3.2v34.2h-3.2V198.2z"/>
		<path fill="#4E5C73" d="M1082.2,198.2h2.8l0.3,5.3h0.3c3.5-3.5,7.1-6.1,11.8-6.1c7.1,0,10.4,4.3,10.4,13.2v22h-3.2V211
			c0-7.3-2.2-10.7-7.9-10.7c-4,0-7.1,2.1-11.2,6.4v25.9h-3.2V198.2L1082.2,198.2z"/>
		<path fill="#4E5C73" d="M1120.2,181.2h3.2V219h0.1l16.9-20.8h3.6l-11.1,13.6l13,20.7h-3.5l-11.4-18.3l-7.8,9v9.4h-3.2V181.2z"/>
	</g>
	<g>
		<path fill="#421102" d="M830.6,202.3c0,1.4-1.1,2.4-2.4,2.4c-1.4,0-2.4-1.1-2.4-2.4c0-1.4,1.1-2.4,2.4-2.4
			C829.7,199.8,830.6,200.9,830.6,202.3z"/>
		<path fill="#D85525" d="M849.5,219.7c-2.9-4.9-6-11.4-9-17.6c-4.9-10.3-9.4-20-14.3-24.8c-1.8-1.8-4.3-3.3-7.3-4.3
			c1.7-7.3,0.3-19.1-3.7-23.1c-0.7-0.7-1.5,3.5-3.7,5.1c-2.9,2.4-9.8,7.8-8.3,17.1c-6.8,1.2-13.2,4.6-18,9.3
			c-7.2,7.2-30.8,33.3-31.1,66.8c0,0.6,0.3,1.1,0.6,1.5c0.4,0.4,1,0.6,1.5,0.6h37.8c0.6,0,1.1-0.3,1.5-0.7c1-1,2.4-2.5,4-4.3
			c4.4-4.7,12.5-13.6,14.7-15c0.4-0.3,1-0.4,1.4-0.4c2.1,0,4.7,3,7.5,6.4c1.4,1.7,2.8,3.3,4.4,5c1.8,1.8,7.1,7.2,13.4,7.2
			c2.9,0,5.7-1.1,8-3.5C855.9,239,856,230.4,849.5,219.7L849.5,219.7z M828.8,196c3.5,0,4.9,2.8,4.9,6.2s-1.4,6.2-4.9,6.2
			c-3.5,0-6.2-2.8-6.2-6.2S825.4,196,828.8,196z M796.5,242.6c-0.1,0.3-0.4,0.4-0.6,0.6c-2.6-2.1-9-3.2-19-3.2
			c-2.5,0-4.6-1.8-6.8-3.6c-2.6-2.2-5.5-4.7-9.7-4.7c0.3-1.4,0.7-2.8,1.1-4.2c5,0.4,8.6,3.3,11.2,5.7c1.5,1.2,3.2,2.6,4.2,2.6
			c7.2,0,17.2,0.6,21.8,4.3C798.1,240.9,797.4,241.8,796.5,242.6z M804.3,234.3c-3.9-11.2-19.4-15.1-23-15.1c-2.9,0-5.4-2.5-7.8-4.7
			c-1.5-1.5-3.6-3.6-4.9-3.6l0,0c0.7-1.2,1.4-2.5,2.1-3.7c2.1,0.8,3.9,2.6,5.7,4.4c1.5,1.5,3.6,3.6,4.9,3.6
			c4.4,0,20.7,3.9,26.2,16.1C806.5,231.9,805.4,233,804.3,234.3z M816.8,226c-0.3,0-0.7-0.1-1-0.1c-1,0-1.8,0.3-2.8,0.7
			c-0.1-0.1-0.1-0.3-0.3-0.4c-0.1-0.3-0.1-0.6-0.1-0.8c0-7.3-7.9-15.1-15.5-19c-6-2.9-8.2-7.8-10-11.8c-1-2.2-1.8-4-3.2-5.4
			c0,0-0.1-0.1-0.1-0.3c1-1.1,1.9-2.1,2.8-3c0.1,0.1,0.3,0.1,0.4,0.3c1.8,1.8,2.9,4.2,4,6.5c1.7,3.6,3.5,7.5,8,9.7
			c6.5,3.2,13.3,9.1,16.4,15.8c1-4.4,1.5-11.6,1.5-22.3c0-2.5,1.1-5.7,2.2-9c1-2.9,1.9-6,1.9-7.8c0-0.3,0-0.6,0.1-0.7
			c0.8,0.6,1.7,1.1,2.2,1.7c0.4,0.4,1,1.1,1.5,1.7c-0.4,1.9-1.1,4.2-1.9,6.4c-1,2.9-1.9,6-1.9,7.6
			C820.9,212.2,819.6,222.2,816.8,226L816.8,226z M824.3,231.2c-1-1.1-1.9-2.1-2.9-2.9c0.3-0.4,0.6-0.7,1-0.8
			c6.1-1.9,7.6-6.2,9.1-10.7c1.4-3.7,2.8-7.5,6.7-9.7c0.6,1.2,1.2,2.5,1.8,3.9c-2.5,1.5-3.5,4.3-4.6,7.3
			C833.8,222.9,831.8,228.6,824.3,231.2z M843.7,234.8c-2.1,3.2-4.3,6.4-6.5,8.6c-1.2-0.6-2.5-1.4-3.5-2.2c0.1-0.3,0.3-0.6,0.4-0.7
			c1.9-1.9,4-5,6-8c2.1-3.2,4.3-6.4,6.5-8.7c0.1-0.1,0.1-0.1,0.3-0.1c0.8,1.4,1.4,2.8,1.8,4C847.1,229.7,845.3,232.3,843.7,234.8z"
			/>
		<path fill="#FFFFFF" d="M828.3,201.4c0,0.3-0.3,0.6-0.6,0.6s-0.6-0.3-0.6-0.6c0-0.3,0.3-0.6,0.6-0.6
			C828,201,828.3,201.1,828.3,201.4z"/>
	</g>
</g>
<g id="Layer_2">
</g>
</svg>
