<?xml version="1.0" encoding="utf-8"?>
<!-- Generator: Adobe Illustrator 18.0.0, SVG Export Plug-In . SVG Version: 6.00 Build 0)  -->
<!DOCTYPE svg PUBLIC "-//W3C//DTD SVG 1.1//EN" "http://www.w3.org/Graphics/SVG/1.1/DTD/svg11.dtd">
<svg version="1.1" id="Layer_1" xmlns="http://www.w3.org/2000/svg" xmlns:xlink="http://www.w3.org/1999/xlink" x="0px" y="0px"
	 viewBox="0 113.6 288.6 60.6" enable-background="new 0 113.6 288.6 60.6" xml:space="preserve">
<linearGradient id="SVGID_1_" gradientUnits="userSpaceOnUse" x1="-85.4092" y1="1602.2273" x2="962.599" y2="1602.2273" gradientTransform="matrix(0.2754 0 0 -0.2754 23.552 585.1928)">
	<stop  offset="0" style="stop-color:#884A9D"/>
	<stop  offset="1" style="stop-color:#AD7CB6"/>
</linearGradient>
<rect x="0" y="113.6" fill="url(#SVGID_1_)" width="288.6" height="60.6"/>
<g>
	<path fill="#FCFCFC" d="M154.6,147.8h-5c-0.7,0-1.4-0.6-1.4-1.4v-5c0-0.7,0.6-1.4,1.4-1.4h5c0.7,0,1.4,0.6,1.4,1.4v5
		C155.9,147.2,155.3,147.8,154.6,147.8z"/>
	<path fill="#FCFCFC" d="M167.5,147.8L167.5,147.8c-2.1,0-3.8-1.7-3.8-3.8l0,0c0-2.1,1.7-3.8,3.8-3.8l0,0c2.1,0,3.8,1.7,3.8,3.8l0,0
		C171.3,146.1,169.6,147.8,167.5,147.8z"/>
	<rect x="132.8" y="140.1" fill="#FCFCFC" width="7.7" height="7.7"/>
	<polygon fill="#FCFCFC" points="125.1,147.8 117.4,147.8 121.2,140.1 121.2,140.1 	"/>
</g>
</svg>
