<?xml version="1.0" encoding="utf-8"?>
<!-- Generator: Adobe Illustrator 18.0.0, SVG Export Plug-In . SVG Version: 6.00 Build 0)  -->
<!DOCTYPE svg PUBLIC "-//W3C//DTD SVG 1.1//EN" "http://www.w3.org/Graphics/SVG/1.1/DTD/svg11.dtd">
<svg version="1.1" id="Layer_1" xmlns="http://www.w3.org/2000/svg" xmlns:xlink="http://www.w3.org/1999/xlink" x="0px" y="0px"
	 viewBox="0 0 1900 400" enable-background="new 0 0 1900 400" xml:space="preserve">
<linearGradient id="SVGID_1_" gradientUnits="userSpaceOnUse" x1="-414.1853" y1="131.315" x2="1044.0648" y2="131.315" gradientTransform="matrix(1.3029 0 0 -1.3029 539.6551 370.4945)">
	<stop  offset="0" style="stop-color:#8CC152"/>
	<stop  offset="1" style="stop-color:#B5DC8C"/>
</linearGradient>
<rect y="-0.6" fill="url(#SVGID_1_)" width="1900" height="400"/>
<g>
	<path fill="#FCFCFC" d="M884.4,195.7l34.1,32.6c0.5,0.5,1.1,0.5,1.5,0l29.1-26.1l29.4,25.9c0.5,0.5,1.4,0.5,1.8,0l35-32.6
		c0,0,11.7,6.1,14.7,23.5c0.6,3.3,2,12.7-2.3,21.8c-3.8,8-13,15.6-16.7,19.4c-11.7,11.5-26.1,25.2-29.9,28.5c-0.5,0.5-1.2,0.5-1.8,0
		l-29.1-25.3c-0.5-0.5-1.2-0.5-1.7,0l-27.9,25.2c-0.6,0.6-1.5,0.5-2.1,0l-40-40c-5-5-8.3-11.4-9.1-18.3
		C868.3,220,869.9,205.7,884.4,195.7z"/>
	<path fill="#FCFCFC" d="M919.9,193l30.3-28.8l31.1,28.8c0,0,18-11.1,11.5-31.5c-1.5-4.9-4.2-9.2-7.7-13l-35-37.6l-36.7,39.4
		c-5.6,6.1-8.5,14.1-7.6,22.3C906.7,179.2,910.2,186.9,919.9,193z"/>
</g>
</svg>
