<?xml version="1.0" encoding="utf-8"?>
<!-- Generator: Adobe Illustrator 18.0.0, SVG Export Plug-In . SVG Version: 6.00 Build 0)  -->
<!DOCTYPE svg PUBLIC "-//W3C//DTD SVG 1.1//EN" "http://www.w3.org/Graphics/SVG/1.1/DTD/svg11.dtd">
<svg version="1.1" id="Layer_1" xmlns="http://www.w3.org/2000/svg" xmlns:xlink="http://www.w3.org/1999/xlink" x="0px" y="0px"
	 viewBox="550 0 800 400" enable-background="new 550 0 800 400" xml:space="preserve">
<linearGradient id="SVGID_1_" gradientUnits="userSpaceOnUse" x1="7.9025" y1="130.5475" x2="621.9025" y2="130.5475" gradientTransform="matrix(1.3029 0 0 -1.3029 539.6551 370.4945)">
	<stop  offset="0" style="stop-color:#8CC152"/>
	<stop  offset="1" style="stop-color:#B5DC8C"/>
</linearGradient>
<rect x="550" y="0.4" fill="url(#SVGID_1_)" width="800" height="400"/>
<g>
	<g>
		<path fill="#FFFFFF" d="M767,248.2h4.4v14.3c0,5.4,2,7.2,5,7.2c3,0,5.2-1.8,5.2-7.2v-14.3h4.2v13.9c0,8.2-3.6,11.3-9.4,11.3
			c-5.7,0-9.4-3.2-9.4-11.3V248.2z"/>
		<path fill="#FFFFFF" d="M789.5,248.2h4.5l2.2,12.5c0.4,2.7,0.8,5.3,1.2,7.9h0.2c0.5-2.6,1.1-5.3,1.6-7.9l3-12.5h3.8l3,12.5
			c0.6,2.6,1.1,5.3,1.7,7.9h0.2c0.4-2.7,0.8-5.3,1.2-7.9l2.2-12.5h4.2l-4.7,24.8h-5.5l-3.1-13.1c-0.4-1.9-0.8-3.8-1.1-5.7h-0.2
			c-0.3,1.9-0.7,3.8-1.1,5.7l-3,13.1h-5.4L789.5,248.2z"/>
		<path fill="#FFFFFF" d="M840.6,247.7c3.4,0,5.8,1.6,7.4,3.1l-2.4,2.7c-1.3-1.2-2.6-2-4.9-2c-4.4,0-7.4,3.4-7.4,9
			c0,5.7,2.6,9.1,7.6,9.1c1.4,0,2.8-0.4,3.6-1.1v-5.4h-4.7v-3.6h8.7v10.9c-1.7,1.7-4.6,3-8,3c-6.6,0-11.6-4.6-11.6-12.8
			C828.8,252.6,833.9,247.7,840.6,247.7z"/>
		<path fill="#FFFFFF" d="M853.5,254.4h3.6l0.3,3.3h0.2c1.3-2.4,3.3-3.8,5.3-3.8c0.9,0,1.6,0.1,2.1,0.4l-0.8,3.8
			c-0.6-0.2-1.1-0.3-1.9-0.3c-1.5,0-3.3,1-4.4,3.8V273h-4.4V254.4z"/>
		<path fill="#FFFFFF" d="M874.7,253.9c5,0,7.7,3.6,7.7,8.8c0,0.8-0.1,1.6-0.2,2h-11.8c0.4,3.4,2.5,5.3,5.5,5.3c1.6,0,3-0.5,4.3-1.4
			l1.5,2.7c-1.8,1.2-4,2-6.4,2c-5.2,0-9.2-3.6-9.2-9.8C866.1,257.6,870.3,253.9,874.7,253.9z M878.6,262c0-3-1.3-4.7-3.8-4.7
			c-2.2,0-4.1,1.6-4.5,4.7H878.6z"/>
		<path fill="#FFFFFF" d="M893.9,253.9c5,0,7.7,3.6,7.7,8.8c0,0.8-0.1,1.6-0.2,2h-11.8c0.4,3.4,2.5,5.3,5.5,5.3c1.6,0,3-0.5,4.3-1.4
			l1.5,2.7c-1.8,1.2-4,2-6.4,2c-5.2,0-9.2-3.6-9.2-9.8C885.3,257.6,889.5,253.9,893.9,253.9z M897.8,262c0-3-1.3-4.7-3.8-4.7
			c-2.2,0-4.1,1.6-4.5,4.7H897.8z"/>
		<path fill="#FFFFFF" d="M905.8,254.4h3.6l0.3,2.5h0.2c1.7-1.6,3.6-3,6.1-3c4,0,5.7,2.7,5.7,7.4V273h-4.4v-11.1
			c0-3.1-0.9-4.2-2.9-4.2c-1.6,0-2.7,0.8-4.3,2.3v13h-4.4V254.4z"/>
		<path fill="#FFFFFF" d="M945.4,247.7c3,0,5.5,1.5,7.1,3.1l-2.5,2.7c-1.3-1.3-2.7-2-4.6-2c-4.1,0-7,3.4-7,9c0,5.7,2.7,9.1,6.8,9.1
			c2.2,0,3.8-0.9,5.2-2.5l2.5,2.7c-2,2.3-4.6,3.6-7.7,3.6c-6.3,0-11.3-4.6-11.3-12.8C933.9,252.6,939,247.7,945.4,247.7z"/>
		<path fill="#FFFFFF" d="M964,253.9c5,0,7.7,3.6,7.7,8.8c0,0.8-0.1,1.6-0.2,2h-11.8c0.4,3.4,2.5,5.3,5.5,5.3c1.6,0,3-0.5,4.3-1.4
			l1.5,2.7c-1.8,1.2-4,2-6.4,2c-5.2,0-9.2-3.6-9.2-9.8C955.4,257.6,959.7,253.9,964,253.9z M967.9,262c0-3-1.3-4.7-3.8-4.7
			c-2.2,0-4.1,1.6-4.5,4.7H967.9z"/>
		<path fill="#FFFFFF" d="M975.9,254.4h3.6l0.3,3.3h0.2c1.3-2.4,3.3-3.8,5.3-3.8c0.9,0,1.6,0.1,2.1,0.4l-0.8,3.8
			c-0.6-0.2-1.1-0.3-1.9-0.3c-1.5,0-3.3,1-4.4,3.8V273h-4.4V254.4z"/>
		<path fill="#FFFFFF" d="M990.7,257.8H988v-3.3l2.9-0.2l0.5-5.1h3.6v5.1h4.7v3.5h-4.7v8.9c0,2.2,0.8,3.3,2.6,3.3
			c0.6,0,1.4-0.2,1.9-0.4l0.8,3.2c-1,0.3-2.3,0.7-3.8,0.7c-4.3,0-5.9-2.7-5.9-6.8V257.8z"/>
		<path fill="#FFFFFF" d="M1003.3,248.6c0-1.5,1.1-2.5,2.7-2.5c1.6,0,2.7,1,2.7,2.5c0,1.4-1.1,2.5-2.7,2.5
			C1004.4,251.1,1003.3,250.1,1003.3,248.6z M1003.7,254.4h4.4V273h-4.4V254.4z"/>
		<path fill="#FFFFFF" d="M1023.2,249.7c-0.7-0.3-1.4-0.5-2-0.5c-1.5,0-2.4,1-2.4,3.1v2h3.6v3.5h-3.6V273h-4.4v-15.2h-2.5v-3.3
			l2.5-0.2v-1.9c0-3.9,1.8-6.7,6.2-6.7c1.3,0,2.6,0.3,3.4,0.6L1023.2,249.7z"/>
		<path fill="#FFFFFF" d="M1025.2,248.6c0-1.5,1.1-2.5,2.7-2.5c1.6,0,2.7,1,2.7,2.5c0,1.4-1.1,2.5-2.7,2.5
			C1026.4,251.1,1025.2,250.1,1025.2,248.6z M1025.7,254.4h4.4V273h-4.4V254.4z"/>
		<path fill="#FFFFFF" d="M1043.8,253.9c2.4,0,4.2,0.9,5.5,2.2l-2.1,2.8c-1-0.9-2-1.4-3.1-1.4c-3,0-5.1,2.5-5.1,6.2
			c0,3.7,2,6.2,5,6.2c1.5,0,2.8-0.8,3.8-1.6l1.8,2.8c-1.7,1.6-4,2.4-6.1,2.4c-5.1,0-9-3.6-9-9.8
			C1034.4,257.5,1038.8,253.9,1043.8,253.9z"/>
		<path fill="#FFFFFF" d="M1063,261.1c0-2-0.9-3.6-3.4-3.6c-1.9,0-3.6,0.8-5.2,1.8l-1.6-2.9c2-1.3,4.7-2.4,7.6-2.4
			c4.7,0,6.9,2.8,6.9,8v11h-3.6l-0.3-2h-0.1c-1.7,1.4-3.6,2.5-5.8,2.5c-3.3,0-5.5-2.2-5.5-5.5C1052,264,1055.3,261.9,1063,261.1z
			 M1058.9,270.1c1.5,0,2.7-0.8,4.1-2v-4.2c-5,0.6-6.7,2-6.7,3.8C1056.3,269.3,1057.4,270.1,1058.9,270.1z"/>
		<path fill="#FFFFFF" d="M1073.3,257.8h-2.7v-3.3l2.9-0.2l0.5-5.1h3.6v5.1h4.7v3.5h-4.7v8.9c0,2.2,0.8,3.3,2.6,3.3
			c0.6,0,1.4-0.2,1.9-0.4l0.8,3.2c-1,0.3-2.3,0.7-3.8,0.7c-4.3,0-5.9-2.7-5.9-6.8V257.8z"/>
		<path fill="#FFFFFF" d="M1085.9,248.6c0-1.5,1.1-2.5,2.7-2.5s2.7,1,2.7,2.5c0,1.4-1.1,2.5-2.7,2.5S1085.9,250.1,1085.9,248.6z
			 M1086.3,254.4h4.4V273h-4.4V254.4z"/>
		<path fill="#FFFFFF" d="M1103.9,253.9c4.7,0,8.9,3.6,8.9,9.8c0,6.2-4.2,9.8-8.9,9.8c-4.6,0-8.8-3.6-8.8-9.8
			C1095.1,257.5,1099.3,253.9,1103.9,253.9z M1103.9,269.9c2.7,0,4.4-2.5,4.4-6.2c0-3.8-1.7-6.2-4.4-6.2s-4.4,2.5-4.4,6.2
			C1099.6,267.4,1101.2,269.9,1103.9,269.9z"/>
		<path fill="#FFFFFF" d="M1117.1,254.4h3.6l0.3,2.5h0.2c1.7-1.6,3.6-3,6.1-3c4,0,5.7,2.7,5.7,7.4V273h-4.4v-11.1
			c0-3.1-0.9-4.2-2.9-4.2c-1.6,0-2.7,0.8-4.2,2.3v13h-4.4V254.4z"/>
	</g>
	<g>
		<path fill="#F8F8F8" d="M913.6,173.3l18.8,18c0.3,0.3,0.6,0.3,0.8,0l16-14.4l16.2,14.3c0.3,0.3,0.8,0.3,1,0l19.3-18
			c0,0,6.4,3.3,8.1,13c0.3,1.8,1.1,7-1.3,12c-2.1,4.4-7.2,8.6-9.2,10.7c-6.4,6.4-14.4,13.9-16.5,15.7c-0.3,0.3-0.7,0.3-1,0l-16-14
			c-0.3-0.3-0.7-0.3-0.9,0l-15.4,13.9c-0.3,0.3-0.8,0.3-1.2,0l-22.1-22.1c-2.8-2.8-4.6-6.3-5-10.1
			C904.8,186.7,905.6,178.8,913.6,173.3z"/>
		<path fill="#F9F9F9" d="M933.2,171.8l16.7-15.9l17.1,15.9c0,0,9.9-6.1,6.4-17.4c-0.8-2.7-2.3-5.1-4.3-7.2l-19.3-20.7l-20.2,21.7
			c-3.1,3.3-4.7,7.8-4.2,12.3C925.9,164.2,927.8,168.5,933.2,171.8z"/>
	</g>
</g>
</svg>
