<?xml version="1.0" encoding="utf-8"?>
<!-- Generator: Adobe Illustrator 18.0.0, SVG Export Plug-In . SVG Version: 6.00 Build 0)  -->
<!DOCTYPE svg PUBLIC "-//W3C//DTD SVG 1.1//EN" "http://www.w3.org/Graphics/SVG/1.1/DTD/svg11.dtd">
<svg version="1.1" id="Layer_1" xmlns="http://www.w3.org/2000/svg" xmlns:xlink="http://www.w3.org/1999/xlink" x="0px" y="0px"
	 viewBox="0 113.6 288.6 60.6" enable-background="new 0 113.6 288.6 60.6" xml:space="preserve">
<linearGradient id="SVGID_1_" gradientUnits="userSpaceOnUse" x1="-1679.8188" y1="-421.4323" x2="-218.4988" y2="-421.4323" gradientTransform="matrix(0.1975 0 0 0.1975 331.8069 227.1754)">
	<stop  offset="0" style="stop-color:#4C19C0"/>
	<stop  offset="1" style="stop-color:#4C19C0;stop-opacity:0.8"/>
</linearGradient>
<rect x="0" y="113.6" fill="url(#SVGID_1_)" width="288.6" height="60.6"/>
<g>
	<path fill="#F5F5F5" d="M171.7,137.6L171.7,137.6L171.7,137.6c0,0-0.1,0-0.2,0c-0.4,0-0.8,0.2-0.8,0.9c-0.2,3.1-0.5,6.2-0.9,9.2
		l0,0c0.3,0,0.5,0,0.6,0.1l0,0c0.5-3,1.6-7.5,1.9-8.8c0-0.2,0.1-0.4,0.1-0.5C172.5,137.9,172.2,137.6,171.7,137.6z"/>
	<path fill="#F5F5F5" d="M141.9,138.8c0.1,1.6,0.1,3.2,0.1,4.8c-1.9,0-3.8,0-5.8,0c0-1.6,0-3.2,0.1-4.8c-0.6,0.1-1.1,0.1-1.7,0
		c0.1,3.4,0.1,6.9,0,10.3c0.6-0.1,1.1-0.1,1.7,0l0,0l0,0c-0.1-1.6-0.1-3.2-0.1-4.8c1.9,0,3.8,0,5.8,0c0,1.6,0,3.2-0.1,4.8l0,0l0,0
		c0.6-0.1,1.2-0.1,1.7,0c-0.1-3.4-0.1-6.9,0-10.3C143,138.9,142.5,138.9,141.9,138.8z"/>
	<path fill="#F5F5F5" d="M129.7,138.8L129.7,138.8L129.7,138.8c-0.4,0.1-0.8,0.1-1.2,0l0,0c-1.4,3.5-3,7.4-4.4,10.3l0,0l0,0
		c0.7-0.2,1.3-0.1,1.7,0c0,0,0,0,0,0l0,0c0.4-0.9,0.8-2,1.2-3l0,0c1.4,0,2.8,0,4.2,0l0,0c0.4,1,0.8,2,1.2,3l0,0
		c0.6-0.2,1.3-0.1,1.7,0l0,0C133,147.2,131,142.1,129.7,138.8z M129.1,140.6c0.6,1.6,1.2,3.2,1.8,4.8l0,0c-1.2,0-2.4,0-3.7,0l0,0
		C128,143.5,128.7,141.6,129.1,140.6z"/>
	<path fill="#F5F5F5" d="M126.5,137.4C126.5,137.4,126.5,137.4,126.5,137.4L126.5,137.4c-0.6,0.1-1.2,0.1-1.7,0
		c-0.5,0.9-2.3,3.9-3.4,5.7c-1.2-1.9-2.5-4.1-3.4-5.7c-0.7,0.2-1,0.2-1.7,0c1.4,2.1,3.7,6.2,4.4,7.5l-0.1,5.5c0,0,0.5-0.1,0.8-0.1
		c0.4,0,0.8,0.1,0.8,0.1l-0.1-5.5C123.5,142.4,125.9,138.3,126.5,137.4z"/>
	<path fill="#F5F5F5" d="M149.7,138.6c-3.6,0-5.6,2.3-5.6,5.3c0,3.3,2.1,5.3,5.5,5.3c3.7,0,5.6-2.3,5.6-5.2
		C155.2,140.7,153,138.6,149.7,138.6z M149.7,148.6c-2.4,0-3.9-1.7-3.9-4.7c0-3.3,1.8-4.7,3.8-4.7c0,0,0.1,0,0.1,0
		c2.2,0,3.9,1.5,3.9,4.7C153.5,147.1,151.9,148.6,149.7,148.6z"/>
	<path fill="#F5F5F5" d="M162.2,138c-3.6,0-6.4,2.1-6.4,5.9c0,3.2,1.8,5.9,6.4,5.9c3.9,0,6.4-2.1,6.4-5.9
		C168.7,140.4,166.3,138,162.2,138z M157.6,143.9c0-4,2.5-5.2,4.7-5.2c2.7,0,4.7,1.7,4.7,5.3c0,4-2.4,5.3-4.7,5.3
		C159.8,149.2,157.6,147.8,157.6,143.9z"/>
	<path fill="#F5F5F5" d="M169.8,148.8c-0.5,0-0.8,0.4-0.8,0.9c0,0.5,0.4,0.8,0.9,0.8c0.4,0,0.8-0.2,0.8-0.8
		C170.7,149.1,170.3,148.8,169.8,148.8z"/>
	<polygon fill="#F5F5F5" points="124,149.1 124.1,149.1 124,149.1 	"/>
</g>
</svg>
