<?xml version="1.0" encoding="utf-8"?>
<!-- Generator: Adobe Illustrator 18.0.0, SVG Export Plug-In . SVG Version: 6.00 Build 0)  -->
<!DOCTYPE svg PUBLIC "-//W3C//DTD SVG 1.1//EN" "http://www.w3.org/Graphics/SVG/1.1/DTD/svg11.dtd">
<svg version="1.1" id="Layer_1" xmlns="http://www.w3.org/2000/svg" xmlns:xlink="http://www.w3.org/1999/xlink" x="0px" y="0px"
	 viewBox="-0.2 71.7 288.3 144.5" enable-background="new -0.2 71.7 288.3 144.5" xml:space="preserve">
<linearGradient id="SVGID_1_" gradientUnits="userSpaceOnUse" x1="-1680.7589" y1="-421.1253" x2="-221.0122" y2="-421.1253" gradientTransform="matrix(0.1975 0 0 0.1975 331.8069 227.1754)">
	<stop  offset="0" style="stop-color:#4C19C0"/>
	<stop  offset="1" style="stop-color:#4C19C0;stop-opacity:0.8"/>
</linearGradient>
<rect x="-0.2" y="71.7" fill="url(#SVGID_1_)" width="288.3" height="144.5"/>
<g>
	<path fill="#F5F5F5" d="M188.9,133.5L188.9,133.5L188.9,133.5c0,0-0.2,0-0.3,0c-0.7,0-1.3,0.4-1.3,1.4c-0.4,5.1-0.8,10.2-1.5,15
		l0,0c0,0,0,0,0,0c0,0,0,0,0,0l0,0c0.4-0.1,0.7,0,1.1,0.2l0,0c0.8-4.9,2.6-12.3,3.1-14.4c0.1-0.3,0.2-0.6,0.2-0.9
		C190.1,134.1,189.7,133.7,188.9,133.5z"/>
	<path fill="#F5F5F5" d="M140,135.5c0.1,2.6,0.2,5.3,0.2,7.9c-3.1,0.1-6.3,0.1-9.4,0c0-2.6,0.1-5.3,0.2-7.9c-0.9,0.2-1.9,0.2-2.8,0
		c0.2,5.6,0.2,11.3,0,16.9c0.9-0.2,1.9-0.2,2.8,0l0,0l0,0c-0.1-2.6-0.2-5.2-0.2-7.9c3.1,0,6.3,0,9.4,0c0,2.6-0.1,5.2-0.2,7.9l0,0
		l0,0c1-0.2,1.9-0.2,2.8,0c-0.2-5.6-0.2-11.3,0-16.9C141.9,135.8,140.9,135.8,140,135.5z"/>
	<path fill="#F5F5F5" d="M119.9,135.5L119.9,135.5L119.9,135.5c-0.7,0.2-1.3,0.2-2,0l0,0c-2.3,5.7-4.9,12.1-7.2,16.9l0,0l0,0
		c1.1-0.3,2.1-0.2,2.8,0c0,0,0,0,0,0l0,0c0.6-1.5,1.3-3.2,2-5l0,0c2.3-0.1,4.6-0.1,6.9,0l0,0c0.7,1.7,1.3,3.3,2,5l0,0
		c1-0.3,2.1-0.2,2.8,0l0,0C125.5,149.3,122.1,141,119.9,135.5z M118.9,138.5c0.9,2.6,2,5.2,3,7.9l0,0c-2,0.1-4,0.1-6,0l0,0
		C117.2,143.2,118.3,140.2,118.9,138.5z"/>
	<path fill="#F5F5F5" d="M107.5,145.6c2.3-4.1,6.2-10.8,7.3-12.3c0,0,0,0,0,0l0,0c-1,0.2-1.9,0.2-2.8,0c-0.8,1.5-3.8,6.3-5.6,9.4
		c-1.9-3.2-4.2-6.8-5.6-9.4c-1.2,0.2-1.7,0.3-2.8,0c2.3,3.5,6,10.1,7.3,12.3h0l-0.2,9.1c0,0,0.8-0.1,1.4-0.1c0.6,0,1.3,0.1,1.3,0.1
		L107.5,145.6L107.5,145.6z"/>
	<path fill="#F5F5F5" d="M152.7,135.3c-6,0-9.1,3.8-9.1,8.7c0,5.4,3.4,8.7,9.1,8.7c6.1,0,9.1-3.7,9.1-8.6
		C161.9,138.6,158.3,135.3,152.7,135.3z M152.7,151.7c-4,0-6.3-2.9-6.3-7.7c0-5.4,2.9-7.6,6.2-7.7c0.1,0,0.1,0,0.2,0
		c3.7,0,6.3,2.5,6.3,7.7C159.1,149.2,156.4,151.7,152.7,151.7z"/>
	<path fill="#F5F5F5" d="M173.4,134.3c-5.9,0-10.5,3.4-10.5,9.7c0,5.2,3,9.7,10.5,9.7c6.4,0,10.5-3.5,10.5-9.6
		C183.9,138.3,180,134.3,173.4,134.3z M165.7,143.9c0-6.6,4.1-8.6,7.7-8.6c4.5,0,7.8,2.7,7.8,8.7c0,6.5-4,8.6-7.8,8.6
		C169.3,152.7,165.7,150.3,165.7,143.9z"/>
	<path fill="#F5F5F5" d="M185.7,152c-0.9,0-1.3,0.7-1.3,1.4c0,0.9,0.7,1.3,1.5,1.3c0.6,0,1.3-0.4,1.3-1.4
		C187.2,152.5,186.6,152,185.7,152z"/>
	<polygon fill="#F5F5F5" points="110.7,152.4 110.7,152.4 110.7,152.4 	"/>
</g>
</svg>
