<?xml version="1.0" encoding="utf-8"?>
<!-- Generator: Adobe Illustrator 18.0.0, SVG Export Plug-In . SVG Version: 6.00 Build 0)  -->
<!DOCTYPE svg PUBLIC "-//W3C//DTD SVG 1.1//EN" "http://www.w3.org/Graphics/SVG/1.1/DTD/svg11.dtd">
<svg version="1.1" id="Layer_1" xmlns="http://www.w3.org/2000/svg" xmlns:xlink="http://www.w3.org/1999/xlink" x="0px" y="0px"
	 viewBox="0 113.6 288 60.6" enable-background="new 0 113.6 288 60.6" xml:space="preserve">
<linearGradient id="SVGID_1_" gradientUnits="userSpaceOnUse" x1="0" y1="143.9091" x2="288" y2="143.9091">
	<stop  offset="0" style="stop-color:#16C2D8"/>
	<stop  offset="1" style="stop-color:#7AC3CC"/>
</linearGradient>
<rect y="113.6" fill="url(#SVGID_1_)" width="288" height="60.6"/>
<path fill="#FCFCFC" d="M153.1,133.8h-18.1c-0.8,0-1.5,0.7-1.5,1.5v13.1c0,0.4,0,1.4,0,1.4v4.2l5.3-4.2l14.3,0
	c0.8,0,1.5-0.7,1.5-1.5v-13.1C154.5,134.5,153.9,133.8,153.1,133.8z M149.7,148.8c-5.3-0.7-5.8-1-9-3.6c-2.9-2.4-3.8-8.5-3.6-8.9
	c0.1-0.4,0.4-0.3,0.4-0.3l3.5,0c0.1,0,0.2,0,0.2,0.1l0.2,0.2c0.1,0,0.1,0.1,0.1,0.2l-0.1,3.2c0,0.2-0.1,0.3-0.2,0.4
	c-0.2,0.2-0.7,0.6-1.3,1.2c-0.1,0.1-0.2,0.3-0.1,0.4c0.5,2,3.8,4.1,4.7,4.6c0.1,0.1,0.2,0,0.3-0.1l1.2-1.4c0.1-0.1,0.2-0.2,0.4-0.2
	l3.1,0c0.1,0,0.3,0.1,0.4,0.2l0,0c0.1,0.1,0.1,0.2,0.1,0.4l0.1,3.1C150.1,148.1,150.1,148.8,149.7,148.8z"/>
</svg>
