<?xml version="1.0" encoding="utf-8"?>
<!-- Generator: Adobe Illustrator 18.0.0, SVG Export Plug-In . SVG Version: 6.00 Build 0)  -->
<!DOCTYPE svg PUBLIC "-//W3C//DTD SVG 1.1//EN" "http://www.w3.org/Graphics/SVG/1.1/DTD/svg11.dtd">
<svg version="1.1" id="Layer_1" xmlns="http://www.w3.org/2000/svg" xmlns:xlink="http://www.w3.org/1999/xlink" x="0px" y="0px"
	 viewBox="550 72.1 288 144" enable-background="new 550 72.1 288 144" xml:space="preserve">
<linearGradient id="SVGID_1_" gradientUnits="userSpaceOnUse" x1="550" y1="144.144" x2="838" y2="144.144">
	<stop  offset="0" style="stop-color:#16C2D8"/>
	<stop  offset="1" style="stop-color:#7AC3CC"/>
</linearGradient>
<rect x="550" y="72.1" fill="url(#SVGID_1_)" width="288" height="144"/>
<path fill="#FCFCFC" d="M711,116.1h-31.8c-1.4,0-2.6,1.1-2.6,2.6v23c0,0.6,0,2.5,0,2.5v7.4l9.3-7.4l25.1,0c1.4,0,2.6-1.1,2.6-2.6
	v-23C713.5,117.3,712.4,116.1,711,116.1z M705,142.4c-9.2-1.2-10.2-1.7-15.8-6.3c-5.2-4.3-6.7-14.9-6.4-15.6
	c0.3-0.6,0.6-0.6,0.6-0.6l6.1,0c0.1,0,0.3,0,0.4,0.1l0.3,0.3c0.1,0.1,0.2,0.2,0.1,0.3l-0.2,5.7c0,0.3-0.1,0.5-0.3,0.7
	c-0.4,0.3-1.3,1-2.3,2c-0.2,0.2-0.3,0.5-0.2,0.7c0.9,3.5,6.7,7.2,8.2,8.1c0.2,0.1,0.4,0.1,0.6-0.1l2.2-2.5c0.2-0.2,0.4-0.3,0.7-0.3
	l5.4,0c0.3,0,0.5,0.1,0.7,0.3l0.1,0.1c0.1,0.2,0.2,0.4,0.2,0.6l0.1,5.4C705.7,141.3,705.7,142.5,705,142.4z"/>
<g>
	<g>
		<path id="path2998" fill="#FFFFFF" d="M651.4,164.3h-7v2.1h5c-0.2,2.9-2.7,4.2-5,4.2c-2.9,0-5.5-2.3-5.5-5.5
			c0-3.1,2.4-5.6,5.5-5.6c2.4,0,3.7,1.5,3.7,1.5l1.5-1.5c0,0-1.9-2.1-5.3-2.1c-4.3,0-7.7,3.7-7.7,7.6c0,3.9,3.2,7.6,7.8,7.6
			c4.1,0,7.1-2.8,7.1-6.9C651.5,164.8,651.4,164.3,651.4,164.3L651.4,164.3z"/>
		<path id="path3000" fill="#FFFFFF" d="M657.1,162.8c-2.9,0-4.9,2.2-4.9,4.9c0,2.7,2,4.9,5,4.9c2.7,0,4.9-2.1,4.9-4.9
			C662,164.5,659.5,162.8,657.1,162.8L657.1,162.8z M657.2,164.7c1.4,0,2.7,1.1,2.7,3c0,1.8-1.3,3-2.8,3c-1.6,0-2.8-1.3-2.8-3
			C654.4,166,655.6,164.7,657.2,164.7L657.2,164.7z"/>
		<path id="path3005" fill="#FFFFFF" d="M667.8,162.8c-2.9,0-4.9,2.2-4.9,4.9c0,2.7,2,4.9,5,4.9c2.7,0,4.9-2.1,4.9-4.9
			C672.8,164.5,670.2,162.8,667.8,162.8L667.8,162.8z M667.9,164.7c1.4,0,2.7,1.1,2.7,3c0,1.8-1.3,3-2.8,3c-1.6,0-2.8-1.3-2.8-3
			C665.1,166,666.3,164.7,667.9,164.7L667.9,164.7z"/>
		<path id="path3007" fill="#FFFFFF" d="M678.3,162.8c-2.6,0-4.7,2.3-4.7,4.9c0,2.9,2.4,4.9,4.7,4.9c1.4,0,2.1-0.6,2.7-1.2v1
			c0,1.7-1,2.7-2.6,2.7c-1.5,0-2.2-1.1-2.5-1.7l-1.9,0.8c0.7,1.4,2,2.9,4.4,2.9c2.6,0,4.6-1.6,4.6-5.1v-8.8H681v0.8
			C680.4,163.2,679.5,162.8,678.3,162.8L678.3,162.8z M678.5,164.7c1.3,0,2.6,1.1,2.6,3c0,1.9-1.3,3-2.6,3c-1.4,0-2.7-1.1-2.7-3
			C675.8,165.8,677.2,164.7,678.5,164.7L678.5,164.7z"/>
		<path id="path3011" fill="#FFFFFF" d="M692.2,162.8c-2.5,0-4.6,2-4.6,4.9c0,3.1,2.3,4.9,4.8,4.9c2.1,0,3.3-1.1,4.1-2.2l-1.7-1.1
			c-0.4,0.7-1.2,1.3-2.4,1.3c-1.4,0-2-0.8-2.4-1.5l6.6-2.7l-0.3-0.8C695.6,164.1,694.1,162.8,692.2,162.8L692.2,162.8z M692.3,164.7
			c0.9,0,1.5,0.5,1.8,1l-4.4,1.8C689.5,166.1,690.8,164.7,692.3,164.7L692.3,164.7z"/>
		<path id="path3015" fill="#FFFFFF" d="M684.5,172.3h2.2v-14.4h-2.2V172.3z"/>
	</g>
	<g>
		<path fill="#FFFFFF" d="M707.1,172.4l-4.3-12.2h1.7l3.3,9.9h0.1l3.5-9.9h1.7l-4.4,12.2H707.1z"/>
		<path fill="#FFFFFF" d="M714.2,165.1c0.8-0.8,1.8-1.3,3.1-1.3s2.3,0.4,3.1,1.3c0.8,0.8,1.2,1.9,1.2,3.2s-0.4,2.3-1.2,3.2
			c-0.8,0.8-1.8,1.3-3.1,1.3s-2.3-0.4-3.1-1.3c-0.8-0.8-1.2-1.9-1.2-3.2S713.4,165.9,714.2,165.1z M715.3,170.4
			c0.5,0.6,1.2,0.8,1.9,0.8s1.4-0.3,1.9-0.8c0.5-0.6,0.8-1.3,0.8-2.2c0-0.9-0.3-1.6-0.8-2.2c-0.5-0.6-1.2-0.8-1.9-0.8
			s-1.4,0.3-1.9,0.8c-0.5,0.6-0.8,1.3-0.8,2.2C714.5,169.2,714.8,169.9,715.3,170.4z"/>
		<path fill="#FFFFFF" d="M724.5,162c-0.2,0.2-0.5,0.3-0.8,0.3c-0.3,0-0.6-0.1-0.8-0.3c-0.2-0.2-0.3-0.5-0.3-0.8
			c0-0.3,0.1-0.6,0.3-0.8c0.2-0.2,0.5-0.3,0.8-0.3c0.3,0,0.6,0.1,0.8,0.3c0.2,0.2,0.3,0.5,0.3,0.8
			C724.9,161.5,724.7,161.8,724.5,162z M724.5,172.4H723v-8.4h1.6V172.4z"/>
		<path fill="#FFFFFF" d="M730.3,172.7c-1.3,0-2.3-0.4-3.1-1.3c-0.8-0.8-1.2-1.9-1.2-3.2s0.4-2.3,1.2-3.2c0.8-0.8,1.8-1.3,3.1-1.3
			c0.9,0,1.7,0.2,2.3,0.7c0.6,0.5,1.1,1,1.3,1.7l-1.4,0.6c-0.4-1-1.2-1.6-2.3-1.6c-0.7,0-1.3,0.3-1.8,0.9c-0.5,0.6-0.8,1.3-0.8,2.2
			c0,0.9,0.3,1.6,0.8,2.2c0.5,0.6,1.1,0.9,1.8,0.9c1.2,0,2-0.5,2.4-1.6l1.4,0.6c-0.3,0.7-0.7,1.3-1.4,1.7
			C732,172.5,731.2,172.7,730.3,172.7z"/>
		<path fill="#FFFFFF" d="M739.1,172.7c-1.3,0-2.3-0.4-3.1-1.3c-0.8-0.8-1.2-1.9-1.2-3.2c0-1.2,0.4-2.3,1.2-3.1
			c0.8-0.9,1.7-1.3,2.9-1.3c1.2,0,2.2,0.4,3,1.2c0.7,0.8,1.1,1.9,1.1,3.2l0,0.3h-6.6c0,0.8,0.3,1.5,0.8,2c0.5,0.5,1.1,0.7,1.8,0.7
			c1.1,0,1.9-0.5,2.3-1.4l1.4,0.6c-0.3,0.6-0.7,1.2-1.3,1.6C740.8,172.5,740,172.7,739.1,172.7z M741.3,167.2c0-0.5-0.3-0.9-0.7-1.4
			s-1-0.6-1.8-0.6c-0.6,0-1.1,0.2-1.5,0.5s-0.7,0.9-0.9,1.5H741.3z"/>
	</g>
</g>
</svg>
