<?xml version="1.0" encoding="utf-8"?>
<!-- Generator: Adobe Illustrator 18.0.0, SVG Export Plug-In . SVG Version: 6.00 Build 0)  -->
<!DOCTYPE svg PUBLIC "-//W3C//DTD SVG 1.1//EN" "http://www.w3.org/Graphics/SVG/1.1/DTD/svg11.dtd">
<svg version="1.1" id="Layer_1" xmlns="http://www.w3.org/2000/svg" xmlns:xlink="http://www.w3.org/1999/xlink" x="0px" y="0px"
	 viewBox="0 0 1900 400" enable-background="new 0 0 1900 400" xml:space="preserve">
<linearGradient id="SVGID_1_" gradientUnits="userSpaceOnUse" x1="-1257.8694" y1="-309.8928" x2="200.3041" y2="-309.8928" gradientTransform="matrix(1.303 0 0 1.303 1639.0038 602.7902)">
	<stop  offset="0" style="stop-color:#638DED"/>
	<stop  offset="1" style="stop-color:#9FBBF8"/>
</linearGradient>
<rect y="-1" fill="url(#SVGID_1_)" width="1900" height="400"/>
<g>
	<path fill="#FFFFFF" d="M1062.9,224.3c0,0-4.2-5.5-11-4.7c0,0-7.3,0.3-11.5,7.3l-19.2,30.7h-24.7V235h8.4v-40.4h-11v-36.7h-39.1
		v40.4h11v32.8h-8.4v16.5h-37.8l-32.3-52c-7.3-11.5-19.4-12.1-19.4-12.1c-11.3-1-18.4,8.1-18.4,8.1l-30.2,31h55.4l6,10l18.9,31.2
		c3.1,5,7.9,7.6,12.3,7.6h45.4l0,0h39.1l0,0h29.1c2.6,0,5.2-1.3,7.3-4.5l11.3-18.4l3.7-5.8h32.8L1062.9,224.3z M994.1,205.9V224
		h-17.3v-18.1H994.1z M965.7,187.5v-18.1h17.6v18.1H965.7z M968.4,248.2L968.4,248.2v-5.5H986v18.1h-4.5
		C981.8,254.7,977.6,248.2,968.4,248.2z"/>
	<ellipse fill="#FFFFFF" cx="1029.5" cy="207.5" rx="17.1" ry="17.6"/>
	<ellipse fill="#FFFFFF" cx="896.7" cy="158.1" rx="28.6" ry="29.7"/>
</g>
</svg>
