<?xml version="1.0" encoding="utf-8"?>
<!-- Generator: Adobe Illustrator 18.0.0, SVG Export Plug-In . SVG Version: 6.00 Build 0)  -->
<!DOCTYPE svg PUBLIC "-//W3C//DTD SVG 1.1//EN" "http://www.w3.org/Graphics/SVG/1.1/DTD/svg11.dtd">
<svg version="1.1" id="Layer_1" xmlns="http://www.w3.org/2000/svg" xmlns:xlink="http://www.w3.org/1999/xlink" x="0px" y="0px"
	 viewBox="0 113.5 288 60.6" enable-background="new 0 113.5 288 60.6" xml:space="preserve">
<linearGradient id="SVGID_1_" gradientUnits="userSpaceOnUse" x1="0" y1="89" x2="1900" y2="89" gradientTransform="matrix(0.1516 0 0 -0.1516 0 157.3389)">
	<stop  offset="0" style="stop-color:#F7D365"/>
	<stop  offset="1" style="stop-color:#FBE08E"/>
</linearGradient>
<rect y="113.5" fill="url(#SVGID_1_)" width="288" height="60.6"/>
<g>
	<path fill="#302F2C" d="M150.8,132.8h-13.6c-1.1,0-1.9,0.9-1.9,1.9V153c0,1,0.9,1.9,1.9,1.9h13.6c1,0,1.9-0.9,1.9-1.9v-18.2
		C152.7,133.7,151.9,132.8,150.8,132.8z"/>
	<path fill="#FCDC00" d="M142.4,143.3c0.5,0.1,1.1,0.1,1.6,0.1c1.2,0,2.5-0.1,2.8-0.8c0.1-0.2,0-0.6,0-0.7c-0.2-0.5-0.9-0.9-1.3-1
		c0,0-0.1,0-0.1,0l0,0c-0.2-0.1-0.5-0.2-0.5-0.3c-0.1-0.2,0.1-0.4,0.2-0.6c0.1-0.1,0.1-0.2,0.2-0.2c0.2-0.3,0.3-0.7,0.3-1.1
		c0-0.6-0.1-1.1-0.4-1.4c-0.3-0.3-0.7-0.5-1.1-0.5c-0.1,0-0.2,0-0.2,0c-0.8,0.1-1.3,0.7-1.4,1.5c0,0.6,0.1,1.2,0.5,1.8
		c0,0,0,0.1,0.1,0.1l0,0c0.1,0.1,0.2,0.2,0.1,0.3c0,0.1-0.2,0.2-0.3,0.3l-0.1,0c-0.2,0.1-0.4,0.2-0.6,0.3l0,0
		c-0.4,0.2-0.9,0.5-1,0.9c-0.1,0.3-0.1,0.5,0.1,0.7C141.5,143.1,142,143.3,142.4,143.3z"/>
	<path fill="#86AEDD" d="M149.3,146.3h-10.6c-0.2,0-0.4,0.2-0.4,0.4c0,0.2,0.2,0.4,0.4,0.4h10.6c0.2,0,0.4-0.2,0.4-0.4
		C149.7,146.5,149.5,146.3,149.3,146.3z"/>
	<path fill="#EE6A56" d="M149.3,148.4h-10.6c-0.2,0-0.4,0.2-0.4,0.4c0,0.2,0.2,0.4,0.4,0.4h10.6c0.2,0,0.4-0.2,0.4-0.4
		C149.7,148.6,149.5,148.4,149.3,148.4z"/>
	<path fill="#F7D54A" d="M149.3,150.4h-10.6c-0.2,0-0.4,0.2-0.4,0.4c0,0.2,0.2,0.4,0.4,0.4h10.6c0.2,0,0.4-0.2,0.4-0.4
		C149.7,150.6,149.5,150.4,149.3,150.4z"/>
	<path fill="#F2F2F2" d="M144,134.9L144,134.9c-0.3,0-0.5-0.2-0.5-0.5l0,0c0-0.3,0.2-0.5,0.5-0.5l0,0c0.3,0,0.5,0.2,0.5,0.5l0,0
		C144.5,134.7,144.3,134.9,144,134.9z"/>
</g>
</svg>
