<?xml version="1.0" encoding="utf-8"?>
<!-- Generator: Adobe Illustrator 18.0.0, SVG Export Plug-In . SVG Version: 6.00 Build 0)  -->
<!DOCTYPE svg PUBLIC "-//W3C//DTD SVG 1.1//EN" "http://www.w3.org/Graphics/SVG/1.1/DTD/svg11.dtd">
<svg version="1.1" id="Layer_1" xmlns="http://www.w3.org/2000/svg" xmlns:xlink="http://www.w3.org/1999/xlink" x="0px" y="0px"
	 viewBox="550 72 288 144" enable-background="new 550 72 288 144" xml:space="preserve">
<linearGradient id="SVGID_1_" gradientUnits="userSpaceOnUse" x1="3628.4722" y1="88" x2="5528.4722" y2="88" gradientTransform="matrix(0.1516 0 0 -0.1516 7.390976e-06 157.3389)">
	<stop  offset="0" style="stop-color:#F7D365"/>
	<stop  offset="1" style="stop-color:#FBE08E"/>
</linearGradient>
<rect x="550" y="72" fill="url(#SVGID_1_)" width="288" height="144"/>
<g>
	<path fill="#302F2C" d="M701.9,119h-16.1c-1.2,0-2.2,1-2.2,2.2v21.5c0,1.2,1,2.2,2.2,2.2h16.1c1.2,0,2.2-1,2.2-2.2v-21.5
		C704.2,120,703.2,119,701.9,119z"/>
	<path fill="#FCDC00" d="M692,131.4c0.6,0.1,1.3,0.1,1.9,0.1c1.5,0,3-0.1,3.3-0.9c0.1-0.3,0.1-0.7,0-0.8c-0.2-0.6-1.1-1-1.5-1.2
		c0,0-0.1,0-0.1-0.1l0,0c-0.2-0.1-0.6-0.2-0.6-0.4c-0.1-0.2,0.1-0.4,0.3-0.7c0.1-0.1,0.1-0.2,0.2-0.3c0.2-0.4,0.4-0.9,0.4-1.3
		c0.1-0.7-0.1-1.3-0.5-1.7c-0.3-0.4-0.8-0.5-1.3-0.5c-0.1,0-0.2,0-0.3,0c-0.9,0.1-1.5,0.8-1.6,1.7c-0.1,0.7,0.2,1.4,0.6,2.1
		c0,0,0.1,0.1,0.1,0.1l0,0c0.1,0.1,0.2,0.2,0.2,0.4c0,0.2-0.2,0.2-0.4,0.3l-0.1,0c-0.3,0.1-0.5,0.3-0.7,0.3l0,0
		c-0.5,0.3-1,0.6-1.2,1.1c-0.1,0.3-0.1,0.6,0.1,0.8C691,131.1,691.6,131.3,692,131.4z"/>
	<path fill="#86AEDD" d="M700.1,134.9h-12.5c-0.3,0-0.5,0.2-0.5,0.5c0,0.3,0.2,0.5,0.5,0.5h12.5c0.3,0,0.5-0.2,0.5-0.5
		C700.7,135.1,700.4,134.9,700.1,134.9z"/>
	<path fill="#EE6A56" d="M700.1,137.3h-12.5c-0.3,0-0.5,0.2-0.5,0.5c0,0.3,0.2,0.5,0.5,0.5h12.5c0.3,0,0.5-0.2,0.5-0.5
		C700.7,137.5,700.4,137.3,700.1,137.3z"/>
	<path fill="#F7D54A" d="M700.1,139.7h-12.5c-0.3,0-0.5,0.2-0.5,0.5c0,0.3,0.2,0.5,0.5,0.5h12.5c0.3,0,0.5-0.2,0.5-0.5
		S700.4,139.7,700.1,139.7z"/>
	<g>
		<path fill="#302F2C" d="M662.8,164.2c0,0.2-0.1,0.3-0.3,0.3h-1.1c-0.2,0-0.3-0.1-0.3-0.3v-8.8h-1.7c-0.2,0-0.3-0.1-0.3-0.3v-0.8
			c0-0.2,0.1-0.3,0.3-0.3h3c0.2,0,0.3,0.1,0.3,0.3V164.2z M661.9,151.6c-0.7,0-1.3-0.6-1.3-1.3s0.6-1.3,1.3-1.3
			c0.7,0,1.3,0.6,1.3,1.3S662.6,151.6,661.9,151.6z"/>
		<path fill="#302F2C" d="M673.7,161.1c0,1,0,1.6,0.2,2.2c0.1,0.3,0.4,0.7,0.4,0.8c0,0.1-0.1,0.1-0.2,0.2l-0.8,0.5
			c-0.1,0-0.1,0.1-0.2,0.1c-0.3,0-0.7-0.9-0.8-1.3c-0.5,0.4-1.6,1.3-3.2,1.3c-2.3,0-3.4-2.6-3.4-5.3c0-3.1,1.1-5.7,3.6-5.7
			c1.3,0,2.1,0.4,2.7,0.7v-5.1c0-0.2,0.1-0.2,0.2-0.3l1.1-0.3c0.2,0,0.1,0,0.3,0c0.2,0,0.2,0.2,0.2,0.3V161.1z M672.1,156
			c-0.7-0.4-1.4-0.7-2.5-0.7c-1.9,0-2,2.1-2,4.2c0,1.8,0.2,3.9,1.9,3.9c1.1,0,2.1-1,2.6-1.3V156z"/>
		<path fill="#302F2C" d="M684.3,163.5c0,0.1,0.1,0.1,0.1,0.2c0,0.2-1.8,1.1-3.4,1.1c-2.9,0-4.6-2.2-4.6-5.5c0-3.2,1.6-5.5,4.3-5.5
			c3.6,0,3.9,3.5,3.9,5.4c0,0.3,0,0.5-0.2,0.5h-6.2c0,1.3,0.5,3.7,3,3.7c1.4,0,2.5-0.9,2.7-0.9c0.1,0,0.1,0.1,0.1,0.1L684.3,163.5z
			 M682.9,158.3c0-1.1-0.4-3.2-2.2-3.2c-2,0-2.4,2.1-2.4,3.2H682.9z"/>
		<path fill="#302F2C" d="M695.3,164.2c0,0.2-0.1,0.3-0.3,0.3h-1.1c-0.2,0-0.3-0.1-0.3-0.3V157c0-0.9-0.2-1.8-1.4-1.8
			c-1.4,0-2.3,0.8-2.9,1.3v7.7c0,0.2-0.1,0.3-0.3,0.3H688c-0.2,0-0.3-0.1-0.3-0.3v-7.5c0-0.7,0-1-0.1-1.3c-0.2-0.6-0.3-0.8-0.3-0.9
			c0,0,0-0.1,0.1-0.2l1-0.5c0,0,0.1-0.1,0.2-0.1c0.4,0,0.6,1.3,0.7,1.5c0.7-0.6,1.8-1.5,3.5-1.5c2.4,0,2.6,1.7,2.6,3.2V164.2z"/>
		<path fill="#302F2C" d="M704.7,163.7c0,0.1,0,0.2,0,0.2c0,0.3-1.6,0.9-2.8,0.9c-0.9,0-1.7-0.3-2-0.8c-0.6-0.7-0.6-1.6-0.6-2.4
			v-6.1h-1.6c-0.2,0-0.2-0.2-0.2-0.3v-0.8c0-0.2,0-0.3,0.2-0.3h1.6v-3c0-0.1,0.1-0.2,0.2-0.3l1.1-0.3c0.1,0,0.1,0,0.2,0
			c0.1,0,0.1,0.1,0.1,0.2v3.3h3.2c0.1,0,0.2,0,0.2,0.2c0,0,0,0.1,0,0.2l-0.3,0.8c0,0.1-0.2,0.2-0.3,0.2h-2.9v6.1
			c0,0.9,0,1.8,1.3,1.8c1,0,1.9-0.6,2.1-0.6c0.1,0,0.2,0.1,0.2,0.1L704.7,163.7z"/>
		<path fill="#302F2C" d="M709.2,164.2c0,0.2-0.1,0.3-0.3,0.3h-1.1c-0.2,0-0.3-0.1-0.3-0.3v-8.8h-1.7c-0.2,0-0.3-0.1-0.3-0.3v-0.8
			c0-0.2,0.1-0.3,0.3-0.3h3c0.2,0,0.3,0.1,0.3,0.3V164.2z M708.3,151.6c-0.7,0-1.3-0.6-1.3-1.3s0.6-1.3,1.3-1.3
			c0.7,0,1.3,0.6,1.3,1.3S709,151.6,708.3,151.6z"/>
		<path fill="#302F2C" d="M719.1,163.7c0,0.1,0,0.2,0,0.2c0,0.3-1.6,0.9-2.8,0.9c-0.9,0-1.7-0.3-2-0.8c-0.6-0.7-0.6-1.6-0.6-2.4
			v-6.1H712c-0.2,0-0.2-0.2-0.2-0.3v-0.8c0-0.2,0-0.3,0.2-0.3h1.6v-3c0-0.1,0.1-0.2,0.2-0.3l1.1-0.3c0.1,0,0.1,0,0.2,0
			c0.1,0,0.1,0.1,0.1,0.2v3.3h3.2c0.1,0,0.2,0,0.2,0.2c0,0,0,0.1,0,0.2l-0.3,0.8c0,0.1-0.2,0.2-0.3,0.2h-2.9v6.1
			c0,0.9,0,1.8,1.3,1.8c1,0,1.9-0.6,2.1-0.6c0.1,0,0.2,0.1,0.2,0.1L719.1,163.7z"/>
		<path fill="#302F2C" d="M726.3,163.1c-0.3,1.2-0.8,2.9-1.5,4.3c-0.4,0.9-1.4,1.6-2.6,1.6c-1.2,0-2.7-0.8-2.7-1.1c0,0,0-0.1,0-0.1
			l0.4-0.9c0-0.1,0.1-0.1,0.2-0.1c0.2,0,1,0.8,2.1,0.8c0.8,0,1.3-0.8,1.6-1.8l0.5-1.4h-0.8c-0.2,0-0.2,0-0.3-0.2l-3.4-9.4
			c0-0.1-0.1-0.2,0-0.3c0-0.1,0.1-0.1,0.2-0.2l0.9-0.4c0.1,0,0.2-0.1,0.3-0.1c0.2,0,0.2,0.1,0.2,0.2l2.7,8.2
			c0.2,0.6,0.3,1.1,0.4,1.6h0c0.1-0.5,0.2-1,0.3-1.5l2.2-8.2c0-0.1,0.1-0.2,0.2-0.2c0.1,0,0.2,0,0.3,0.1l0.9,0.4
			c0.1,0,0.2,0.1,0.2,0.2c0,0.1,0,0.2,0,0.3L726.3,163.1z"/>
	</g>
	<path fill="#F2F2F2" d="M694,121.4h-0.1c-0.3,0-0.5-0.2-0.5-0.5v-0.1c0-0.3,0.2-0.5,0.5-0.5h0.1c0.3,0,0.5,0.2,0.5,0.5v0.1
		C694.5,121.2,694.3,121.4,694,121.4z"/>
</g>
</svg>
