<?xml version="1.0" encoding="utf-8"?>
<!-- Generator: Adobe Illustrator 18.0.0, SVG Export Plug-In . SVG Version: 6.00 Build 0)  -->
<!DOCTYPE svg PUBLIC "-//W3C//DTD SVG 1.1//EN" "http://www.w3.org/Graphics/SVG/1.1/DTD/svg11.dtd">
<svg version="1.1" id="Layer_1" xmlns="http://www.w3.org/2000/svg" xmlns:xlink="http://www.w3.org/1999/xlink" x="0px" y="0px"
	 viewBox="0 0 1900 400" enable-background="new 0 0 1900 400" xml:space="preserve">
<linearGradient id="SVGID_1_" gradientUnits="userSpaceOnUse" x1="-1679.8571" y1="709.4323" x2="-218.5371" y2="709.4323" gradientTransform="matrix(1.303 0 0 -1.303 2189.0039 1123.9902)">
	<stop  offset="0" style="stop-color:#31485B"/>
	<stop  offset="1" style="stop-color:#47667F"/>
</linearGradient>
<rect x="0.2" y="-0.4" fill="url(#SVGID_1_)" width="1904.1" height="400"/>
<g>
	<path fill="#E14F3E" d="M996.2,219.8c-5.3,8.4-20.9,14.9-40,16.1c-1.1,0-1.9,0.2-3,0.2c-0.2,0-0.4,0-0.5,0c-1.1,0-1.9,0-3,0l0,0
		l0,0c-1.1,0-1.9,0-3,0c-0.2,0-0.4,0-0.5,0c-1.1,0-1.9,0-3-0.2c-19.1-1.2-34.8-7.7-40-16.1c-1.2-1.9-1.9-0.9-1.9,0
		c0,1.1,0,13.9,0,13.9c0,8.4,8.6,17,21.6,22.3l0,0h0.2c0.9,0.4,1.6,0.7,2.5,0.9c0.2,0,0.4,0.2,0.5,0.2c0.9,0.4,1.9,0.7,2.8,0.9h0.2
		c0.9,0.2,1.8,0.5,2.8,0.7c0.2,0,0.4,0.2,0.7,0.2c1.1,0.2,1.9,0.5,3,0.7h0.2c0.9,0.2,1.9,0.4,3,0.5c0.2,0,0.5,0,0.7,0.2
		c1.1,0.2,2.1,0.4,3.2,0.4c0,0,0,0,0.2,0c1.1,0.2,2.1,0.2,3.2,0.2c0.4,0,0.5,0,0.9,0c1.1,0,2.1,0,3.3,0l0,0l0,0l0,0l0,0
		c1.1,0,2.3,0,3.3,0c0.4,0,0.5,0,0.9,0c1.1,0,2.1-0.2,3.2-0.2c0,0,0,0,0.2,0c1.1-0.2,2.1-0.2,3.2-0.4c0.2,0,0.5,0,0.7-0.2
		c1.1-0.2,1.9-0.4,3-0.5h0.2c1.1-0.2,2.1-0.4,3-0.7c0.2,0,0.4-0.2,0.7-0.2c0.9-0.2,1.9-0.5,2.8-0.7c0,0,0,0,0.2,0
		c0.9-0.4,1.9-0.5,2.8-0.9c0.2,0,0.4-0.2,0.5-0.2c0.9-0.4,1.8-0.5,2.5-0.9h0.2l0,0c13-5.3,21.6-13.9,21.6-22.3c0,0,0-12.8,0-13.9
		C998.2,219,997.5,217.9,996.2,219.8z"/>
	<path fill="#F5B726" d="M998,156.5c-1.2-9.7-22.5-17.2-48.4-17.2l0,0l0,0c-26.9,0-48.4,8.1-48.4,18.3v8.8
		c0,10.7,21.8,19.3,48.4,19.3l0,0l0,0c26,0,47-8.1,48.4-18.3c0-0.4,0-0.7,0-1.1v-8.8C998.2,157.2,998.2,156.8,998,156.5z"/>
	<path fill="#EE8639" d="M996.2,184.4c-4.6,6.7-17.2,11.8-33.2,13.7c-2.1,0.2-4.2,0.4-6.3,0.5c-0.2,0-0.2,0-0.4,0
		c-1.1,0-2.1,0.2-3.2,0.2c-0.2,0-0.4,0-0.4,0c-1.1,0-2.1,0-3.2,0c0,0,0,0-0.2,0c-1.1,0-1.9,0-3,0c-0.2,0-0.4,0-0.5,0
		c-1.1,0-2.1,0-3-0.2c-0.2,0-0.4,0-0.4,0c-2.1-0.2-4.2-0.4-6.1-0.5c-16.1-1.9-28.8-7-33.3-13.7c-1.2-1.8-1.8-0.7-1.8,0
		c0,0.7,0,16.3,0,16.3c0,12.1,21.4,21.9,48.1,22.1h0.9l0,0c0.2,0,0.2,0,0.4,0h0.5l0,0c26.2-0.4,47.2-10,47.2-22.1c0,0,0-15.4,0-16.3
		C998.2,183.7,997.5,182.6,996.2,184.4z"/>
</g>
</svg>
