<?xml version="1.0" encoding="utf-8"?>
<!-- Generator: Adobe Illustrator 18.0.0, SVG Export Plug-In . SVG Version: 6.00 Build 0)  -->
<!DOCTYPE svg PUBLIC "-//W3C//DTD SVG 1.1//EN" "http://www.w3.org/Graphics/SVG/1.1/DTD/svg11.dtd">
<svg version="1.1" id="Layer_1" xmlns="http://www.w3.org/2000/svg" xmlns:xlink="http://www.w3.org/1999/xlink" x="0px" y="0px"
	 viewBox="512.6 0 800 400" enable-background="new 512.6 0 800 400" xml:space="preserve">
<linearGradient id="SVGID_1_" gradientUnits="userSpaceOnUse" x1="-864.4774" y1="-309.1253" x2="-250.5096" y2="-309.1253" gradientTransform="matrix(1.303 0 0 1.303 1639.0038 602.7902)">
	<stop  offset="0" style="stop-color:#31485B"/>
	<stop  offset="1" style="stop-color:#3F566A"/>
</linearGradient>
<rect x="512.6" fill="url(#SVGID_1_)" width="800" height="400"/>
<g>
	<g>
		<path fill="#E14F3E" d="M769.6,211.2c-3,4.8-11.9,8.5-22.8,9.2c-0.6,0-1.1,0.1-1.7,0.1c-0.1,0-0.2,0-0.3,0c-0.6,0-1.1,0-1.7,0h0
			c0,0,0,0,0,0c-0.6,0-1.1,0-1.7,0c-0.1,0-0.2,0-0.3,0c-0.6,0-1.1,0-1.7-0.1c-10.9-0.7-19.8-4.4-22.8-9.2c-0.7-1.1-1.1-0.5-1.1,0
			c0,0.6,0,7.9,0,7.9c0,4.8,4.9,9.7,12.3,12.7v0c0,0,0.1,0,0.1,0c0.5,0.2,0.9,0.4,1.4,0.5c0.1,0,0.2,0.1,0.3,0.1
			c0.5,0.2,1.1,0.4,1.6,0.5c0,0,0.1,0,0.1,0c0.5,0.1,1,0.3,1.6,0.4c0.1,0,0.2,0.1,0.4,0.1c0.6,0.1,1.1,0.3,1.7,0.4c0,0,0.1,0,0.1,0
			c0.5,0.1,1.1,0.2,1.7,0.3c0.1,0,0.3,0,0.4,0.1c0.6,0.1,1.2,0.2,1.8,0.2c0,0,0,0,0.1,0c0.6,0.1,1.2,0.1,1.8,0.1c0.2,0,0.3,0,0.5,0
			c0.6,0,1.2,0,1.9,0h0l0,0l0,0h0c0.6,0,1.3,0,1.9,0c0.2,0,0.3,0,0.5,0c0.6,0,1.2-0.1,1.8-0.1c0,0,0,0,0.1,0
			c0.6-0.1,1.2-0.1,1.8-0.2c0.1,0,0.3,0,0.4-0.1c0.6-0.1,1.1-0.2,1.7-0.3c0,0,0.1,0,0.1,0c0.6-0.1,1.2-0.2,1.7-0.4
			c0.1,0,0.2-0.1,0.4-0.1c0.5-0.1,1.1-0.3,1.6-0.4c0,0,0,0,0.1,0c0.5-0.2,1.1-0.3,1.6-0.5c0.1,0,0.2-0.1,0.3-0.1
			c0.5-0.2,1-0.3,1.4-0.5c0,0,0.1,0,0.1,0v0c7.4-3,12.3-7.9,12.3-12.7c0,0,0-7.3,0-7.9C770.7,210.7,770.3,210.1,769.6,211.2z"/>
		<path fill="#F5B726" d="M770.6,175.1c-0.7-5.5-12.8-9.8-27.6-9.8l0,0l0,0c-15.3,0-27.6,4.6-27.6,10.4v5c0,6.1,12.4,11,27.6,11l0,0
			l0,0c14.8,0,26.8-4.6,27.6-10.4c0-0.2,0-0.4,0-0.6v-5C770.7,175.5,770.7,175.3,770.6,175.1z"/>
		<path fill="#EE8639" d="M769.6,191c-2.6,3.8-9.8,6.7-18.9,7.8c-1.2,0.1-2.4,0.2-3.6,0.3c-0.1,0-0.1,0-0.2,0
			c-0.6,0-1.2,0.1-1.8,0.1c-0.1,0-0.2,0-0.2,0c-0.6,0-1.2,0-1.8,0c0,0,0,0-0.1,0c-0.6,0-1.1,0-1.7,0c-0.1,0-0.2,0-0.3,0
			c-0.6,0-1.2,0-1.7-0.1c-0.1,0-0.2,0-0.2,0c-1.2-0.1-2.4-0.2-3.5-0.3c-9.2-1.1-16.4-4-19-7.8c-0.7-1-1-0.4-1,0c0,0.4,0,9.3,0,9.3
			c0,6.9,12.2,12.5,27.4,12.6l0.5,0v0c0.1,0,0.1,0,0.2,0l0.3,0l0,0c14.9-0.2,26.9-5.7,26.9-12.6c0,0,0-8.8,0-9.3
			C770.7,190.6,770.3,190,769.6,191z"/>
	</g>
	<g>
		<path fill="#FFFFFF" d="M808.5,222.5c-5.5,0-9.8-1.7-12.9-5.1s-4.6-8.2-4.6-14.5c0-6.4,1.5-11.4,4.6-14.9
			c3.1-3.5,7.5-5.2,13.2-5.2c1.8,0,3.7,0.2,5.5,0.6c1.8,0.4,3.3,0.9,4.3,1.4l-1.8,4.9c-1.3-0.5-2.7-0.9-4.2-1.3s-2.9-0.5-4-0.5
			c-7.8,0-11.7,5-11.7,14.9c0,4.7,1,8.3,2.8,10.8s4.7,3.8,8.4,3.8c3.2,0,6.5-0.7,9.8-2.1v5.1C815.6,221.9,812.4,222.5,808.5,222.5z"
			/>
		<path fill="#FFFFFF" d="M858.8,202.7c0,6.2-1.6,11.1-4.7,14.6c-3.1,3.5-7.5,5.3-13,5.3c-3.4,0-6.5-0.8-9.1-2.4
			c-2.7-1.6-4.7-3.9-6.2-6.9c-1.4-3-2.2-6.5-2.2-10.6c0-6.2,1.6-11.1,4.7-14.6c3.1-3.5,7.5-5.2,13-5.2c5.4,0,9.6,1.8,12.8,5.3
			C857.3,191.8,858.8,196.6,858.8,202.7z M829.7,202.7c0,4.9,1,8.6,2.9,11.2c2,2.6,4.8,3.8,8.6,3.8c3.8,0,6.7-1.3,8.7-3.8
			c2-2.6,3-6.3,3-11.2c0-4.9-1-8.6-3-11.1c-2-2.5-4.9-3.8-8.7-3.8c-3.8,0-6.7,1.2-8.6,3.7S829.7,197.7,829.7,202.7z"/>
		<path fill="#FFFFFF" d="M873.3,221.8h-5.8v-54.4h5.8V221.8z"/>
		<path fill="#FFFFFF" d="M917.2,202.7c0,6.2-1.6,11.1-4.7,14.6c-3.1,3.5-7.5,5.3-13,5.3c-3.4,0-6.5-0.8-9.1-2.4
			c-2.7-1.6-4.7-3.9-6.2-6.9s-2.2-6.5-2.2-10.6c0-6.2,1.6-11.1,4.7-14.6c3.1-3.5,7.5-5.2,13-5.2c5.4,0,9.6,1.8,12.8,5.3
			C915.6,191.8,917.2,196.6,917.2,202.7z M888,202.7c0,4.9,1,8.6,2.9,11.2c2,2.6,4.8,3.8,8.6,3.8c3.8,0,6.7-1.3,8.7-3.8
			c2-2.6,3-6.3,3-11.2c0-4.9-1-8.6-3-11.1c-2-2.5-4.9-3.8-8.7-3.8c-3.8,0-6.7,1.2-8.6,3.7S888,197.7,888,202.7z"/>
		<path fill="#FFFFFF" d="M943.3,182.8c1.7,0,3.2,0.1,4.6,0.4l-0.8,5.4c-1.6-0.3-3-0.5-4.2-0.5c-3.1,0-5.8,1.3-8,3.8
			c-2.2,2.5-3.3,5.7-3.3,9.4v20.6h-5.8v-38.3h4.8l0.7,7.1h0.3c1.4-2.5,3.1-4.4,5.1-5.8C938.7,183.5,940.9,182.8,943.3,182.8z"/>
		<path fill="#FFFFFF" d="M978.3,211.4c0,3.6-1.3,6.3-4,8.2c-2.7,1.9-6.4,2.9-11.2,2.9c-5.1,0-9-0.8-11.9-2.4v-5.4
			c1.8,0.9,3.8,1.7,5.9,2.2s4.1,0.8,6.1,0.8c3,0,5.4-0.5,7-1.4c1.6-1,2.4-2.4,2.4-4.4c0-1.5-0.6-2.8-1.9-3.8
			c-1.3-1.1-3.8-2.3-7.6-3.8c-3.6-1.3-6.1-2.5-7.6-3.5s-2.6-2.1-3.4-3.4c-0.7-1.3-1.1-2.8-1.1-4.5c0-3.1,1.3-5.6,3.8-7.4
			c2.5-1.8,6-2.7,10.5-2.7c4.1,0,8.2,0.8,12.1,2.5l-2.1,4.7c-3.8-1.6-7.3-2.4-10.5-2.4c-2.8,0-4.8,0.4-6.2,1.3
			c-1.4,0.9-2.1,2.1-2.1,3.6c0,1,0.3,1.9,0.8,2.6c0.5,0.7,1.4,1.4,2.5,2.1c1.2,0.7,3.4,1.6,6.7,2.8c4.5,1.7,7.6,3.3,9.2,5
			S978.3,208.9,978.3,211.4z"/>
		<path fill="#FFFFFF" d="M998.6,217.8c1,0,2-0.1,3-0.2c1-0.2,1.7-0.3,2.3-0.5v4.4c-0.6,0.3-1.6,0.6-2.8,0.8
			c-1.2,0.2-2.3,0.3-3.3,0.3c-7.4,0-11.1-3.9-11.1-11.7V188h-5.5v-2.8l5.5-2.4l2.4-8.2h3.4v8.9h11.1v4.5h-11.1v22.5
			c0,2.3,0.5,4.1,1.6,5.3S996.7,217.8,998.6,217.8z"/>
		<path fill="#FFFFFF" d="M1043.1,202.7c0,6.2-1.6,11.1-4.7,14.6c-3.1,3.5-7.5,5.3-13,5.3c-3.4,0-6.5-0.8-9.1-2.4
			c-2.7-1.6-4.7-3.9-6.2-6.9s-2.2-6.5-2.2-10.6c0-6.2,1.6-11.1,4.7-14.6s7.5-5.2,13-5.2c5.4,0,9.6,1.8,12.8,5.3
			C1041.5,191.8,1043.1,196.6,1043.1,202.7z M1013.9,202.7c0,4.9,1,8.6,2.9,11.2c2,2.6,4.8,3.8,8.6,3.8s6.7-1.3,8.7-3.8
			c2-2.6,3-6.3,3-11.2c0-4.9-1-8.6-3-11.1c-2-2.5-4.9-3.8-8.7-3.8c-3.8,0-6.7,1.2-8.6,3.7S1013.9,197.7,1013.9,202.7z"/>
		<path fill="#FFFFFF" d="M1069.2,182.8c1.7,0,3.2,0.1,4.6,0.4l-0.8,5.4c-1.6-0.3-3-0.5-4.2-0.5c-3.1,0-5.8,1.3-8,3.8
			c-2.2,2.5-3.3,5.7-3.3,9.4v20.6h-5.8v-38.3h4.8l0.7,7.1h0.3c1.4-2.5,3.1-4.4,5.1-5.8C1064.6,183.5,1066.8,182.8,1069.2,182.8z"/>
		<path fill="#FFFFFF" d="M1095.6,222.5c-5.7,0-10.1-1.7-13.4-5.2c-3.3-3.5-4.9-8.2-4.9-14.4c0-6.2,1.5-11.1,4.6-14.7
			c3-3.6,7.1-5.5,12.3-5.5c4.8,0,8.6,1.6,11.4,4.7c2.8,3.2,4.2,7.3,4.2,12.5v3.7h-26.4c0.1,4.5,1.3,7.9,3.4,10.2
			c2.2,2.3,5.2,3.5,9.1,3.5c4.1,0,8.2-0.9,12.2-2.6v5.2c-2.1,0.9-4,1.5-5.8,1.9S1098.2,222.5,1095.6,222.5z M1094.1,187.7
			c-3.1,0-5.5,1-7.4,3c-1.8,2-2.9,4.8-3.2,8.3h20c0-3.7-0.8-6.5-2.4-8.4C1099.4,188.7,1097.1,187.7,1094.1,187.7z"/>
	</g>
</g>
</svg>
